<?xml version="1.0" encoding="UTF-8" standalone="no"?>
<svg
   xmlns:dc="http://purl.org/dc/elements/1.1/"
   xmlns:cc="http://creativecommons.org/ns#"
   xmlns:rdf="http://www.w3.org/1999/02/22-rdf-syntax-ns#"
   xmlns:svg="http://www.w3.org/2000/svg"
   xmlns="http://www.w3.org/2000/svg"
   version="1.1"
   id="svg2"
   height="273"
   width="215">
  <defs
     id="defs4" />
  <metadata
     id="metadata7">
    <rdf:RDF>
      <cc:Work
         rdf:about="">
        <dc:format>image/svg+xml</dc:format>
        <dc:type
           rdf:resource="http://purl.org/dc/dcmitype/StillImage" />
        <dc:title></dc:title>
      </cc:Work>
    </rdf:RDF>
  </metadata>
  <g
     transform="translate(-2,-2)"
     id="g873">
    <path
       style="fill:#ffffff"
       d="M 63.223401,2.3884817 C 43.521904,2.2728167 29.227164,3.7459197 12.574964,7.3611377 l -9.6777296,2.1015633 -0.72071,7.601562 c -0.3961,4.18035 -0.22594,14.124609 0.37891,22.099609 1.77258,23.37165 7.2028796,41.145351 17.3183596,56.681641 3.33183,5.117327 3.84093,6.524707 2.95312,8.183597 -1.96611,3.6737 -1.25635,7.58438 1.93164,10.63867 2.64895,2.53786 3.98038,2.95445 11.25,3.52149 9.86537,0.76948 20.626905,5.22525 22.488285,9.31054 1.0725,2.35389 0.900565,2.59008 -3.052734,4.17188 -4.488251,1.79584 -14.055471,9.43834 -15.728511,12.56445 -3.53796,6.61072 -1.26014,16.42278 4.39453,18.92578 4.91684,2.1764 13.013963,0.80776 14.248043,-2.4082 0.70465,-1.83629 6.991266,-2.86723 10.896484,-1.78711 1.949757,0.53926 2.744008,1.17635 3.06836,2.66601 -0.0087,0.007 5.04e-4,0.008 0.002,0.0117 0.01405,0.0652 0.03067,0.12475 0.04297,0.19336 -0.04176,-0.004 -0.08824,-0.0223 -0.125,-0.004 -0.07453,0.0373 -0.118835,0.11883 -0.177735,0.17773 -0.05892,0.0589 -0.131534,0.10648 -0.177734,0.17578 -0.07309,0.10963 -0.102681,0.24389 -0.175781,0.35352 -0.09245,0.13868 -0.279016,0.20444 -0.353516,0.35351 -0.0263,0.0527 0.0264,0.12504 0,0.17774 -0.0063,0.0126 -0.02301,0.0181 -0.03125,0.0293 -0.652102,-0.24535 -1.769296,0.61366 -4.458984,3.07227 -4.39639,4.0187 -6.473782,4.83398 -7.613282,2.99023 -0.33992,-0.55 -3.221997,-1 -6.404296,-1 -4.615449,0 -6.171819,0.42604 -7.691409,2.10743 -1.04775,1.15929 -1.7628,2.96382 -1.58984,4.00976 0.20916,1.26485 -0.71201,2.48495 -2.75195,3.64258 -1.68688,0.95727 -3.32848,2.54751 -3.64649,3.5332 -0.9144,2.83427 0.50285,9.07004 2.89258,12.72461 3.20552,4.90215 7.60186,12.17281 8.81445,14.57813 0.5808,1.1521 4.053679,3.82068 7.716799,5.93164 3.66313,2.11096 8.460156,5.02614 10.660156,6.47851 0.0078,0.005 0.02733,0.0183 0.03516,0.0234 7.03e-4,0.0124 -0.0072,0.0279 0.002,0.0371 0.01744,0.0175 0.04435,0.0142 0.07031,0.01 2.22483,1.46838 6.628,4.35852 9.892578,6.49218 3.3,2.15681 6.567649,4.45965 7.261719,5.11719 0.69407,0.65754 3.286839,1.49997 5.761719,1.87109 2.47488,0.37113 5.507231,1.46094 6.738281,2.42188 3.638974,2.84052 18.912524,9.78014 23.238284,10.55859 7.21182,1.29782 7.16235,2.03571 -0.32421,4.89649 -12.01378,4.59072 -14.94551,8.61636 -9.79493,13.45508 2.27233,2.13474 2.66368,2.17982 8.46094,0.98242 5.34734,-1.10448 6.29169,-1.06038 7.86914,0.36719 0.98604,0.89235 3.14225,2.34569 4.79102,3.22851 3.51742,1.88337 9.4089,1.3582 15.88086,-1.41601 6.84319,-2.93333 10.11262,-3.36337 11.63476,-1.5293 1.99132,2.3994 6.51391,4.48183 9.68164,4.45703 3.66254,-0.0287 11.29198,-3.51803 11.32617,-5.17969 0.0271,-1.31564 7.31492,-9.79883 8.41797,-9.79883 1.69758,0 8.87105,-5.69721 9.60547,-7.6289 1.27047,-3.34158 0.0166,-9.21525 -2.11133,-9.89063 -3.58188,-1.13685 -2.496,-3.9197 4.24024,-10.87304 5.927,-6.11803 12.48157,-16.56314 13.56055,-21.60743 2.3916,-11.18086 2.91196,-26.59294 1.23242,-36.5 -0.55945,-3.3 -1.22984,-7.95403 -1.49024,-10.34179 -0.53759,-4.92953 -7.93109,-27.38935 -10.11132,-30.7168 -0.79039,-1.20628 -1.60437,-3.06061 -1.8086,-4.12109 -0.20423,-1.06048 -2.41455,-5.50257 -4.91406,-9.87305 -6.1736,-10.79476 -11.08611,-20.843448 -13.41797,-27.447268 -1.06815,-3.025 -2.67024,-7.525 -3.56055,-10 -3.22189,-8.9566 -6.86221,-22.30778 -7.72656,-28.33789 -0.48572,-3.38862 -1.82325,-9.53711 -2.9707,-13.66211 -1.14744,-4.125 -2.46077,-8.949826 -2.91797,-10.722656 -0.86926,-3.37059 -3.8558,-7.547317 -9.31641,-13.023437 -4.44105,-4.4536703 -14.30336,-7.6949263 -21.12109,-6.9414063 -11.82846,1.30732 -19.24174,5.1110683 -23.54883,12.0800773 -2.69243,4.356452 -5.01582,12.248547 -6.16211,19.289063 -0.002,0.0023 -0.004,0.0055 -0.006,0.0078 -0.11786,0.117849 -0.27897,0.204445 -0.35351,0.353515 -0.0639,0.12786 0,1.521668 0,1.767578 v 0.351563 c -0.60385,4.806944 -0.56931,8.924537 0.41601,10.765625 0.7352,1.37373 0.42057,2.305154 -1.33984,3.958984 l -2.30274,2.162109 -0.67383,-25.273437 C 100.84775,10.289763 100.45105,5.4599117 99.23512,4.5505917 98.34389,3.8840817 89.752788,3.1490967 77.821058,2.7166067 72.603141,2.5274737 67.7699,2.4151737 63.223401,2.3884817 Z M 101.05739,76.163872 h 8.27539 c 7.74902,0 8.40887,0.167516 10.34961,2.634766 1.59132,2.02303 2.06768,4.05482 2.05078,8.75 -0.0282,7.85212 -2.2202,12.535522 -9.29687,19.865232 -3.05333,3.1625 -5.69396,5.73917 -5.86719,5.72657 -0.17323,-0.0126 -2.04614,-1.02513 -4.16211,-2.25 -0.23711,-0.13726 -0.42043,-0.24781 -0.62891,-0.3711 -0.005,-0.0423 -0.0137,-0.0858 -0.0137,-0.12695 v -0.70703 c 0,-0.004 -0.002,-0.01 -0.002,-0.0137 -0.16198,0.18102 -0.33411,0.35916 -0.51367,0.5332 -2.53568,-1.55486 -2.59434,-2.17137 -2.08594,-5.54102 0.33192,-2.2 0.89488,-9.512498 1.25,-16.249998 z m 0.70508,33.507818 c 0.33061,-0.3695 0.51677,-0.69336 0.002,-0.69336 -0.23209,0 -0.009,0.45432 -0.002,0.69336 z m -52.564456,94.70117 c 0.0109,0.014 0.0583,0.056 0.0625,0.0644 0.004,0.008 10e-4,0.0189 0.004,0.0274 -0.0221,-0.0313 -0.0443,-0.0603 -0.0664,-0.0918 z m 7.238278,7.66601 c 0.02417,2.2e-4 0.0506,-0.0108 0.07227,0 0.06506,0.0325 0.100773,0.10497 0.154297,0.1543 -0.07511,-0.0474 -0.151342,-0.10485 -0.226563,-0.1543 z m 0.355469,0.22852 c 0.0842,0.0388 0.171081,0.0737 0.248047,0.125 0.01486,0.01 0.0364,0.0357 0.05273,0.0488 -0.10023,-0.0582 -0.200397,-0.11201 -0.300781,-0.17383 z"
       id="path3079-3" />
    <path
       style="fill:#fdd032"
       d="m 130.55629,271.83809 c -1.70519,-0.77198 -3.40088,-2.1868 -3.7682,-3.14404 -0.68641,-1.78873 -1.13956,-1.78314 -11.42091,0.14099 -5.68962,1.06481 -9.082,-4.2576 -6.17537,-9.6887 0.56935,-1.06384 1.63367,-1.93426 2.36515,-1.93426 0.73147,0 2.40314,-0.83456 3.71481,-1.85457 1.31167,-1.02002 4.18486,-2.4534 6.38486,-3.1853 l 4,-1.33072 -3,-0.65071 c -4.61524,-1.00106 -19.20816,-7.68183 -24.03787,-11.00475 -2.37736,-1.63567 -5.3664,-2.97465 -6.6423,-2.9755 -1.27591,-8.6e-4 -3.76438,-0.78836 -5.52993,-1.75 -6.89531,-3.75567 -14.88086,-8.74676 -16.72846,-10.45554 -1.06621,-0.9861 -2.24919,-1.79291 -2.62885,-1.79291 -1.40545,0 -12.5369,-7.15238 -15.57695,-10.00879 -3.97406,-3.73399 -14.38858,-21.41934 -15.06386,-25.58059 -0.64577,-3.97943 1.06417,-7.21087 4.23708,-8.00722 1.69871,-0.42635 2.47114,-1.31329 2.47114,-2.83749 0,-4.03167 3.95829,-6.56591 10.25543,-6.56591 3.0946,0 5.90465,0.45 6.24457,1 1.10137,1.78205 3.0961,1.06924 6.58333,-2.35252 1.87917,-1.84389 4.31667,-3.83862 5.41667,-4.43275 2,-1.08023 2,-1.08023 0,-1.73816 -1.1,-0.36186 -2.95888,-1.11446 -4.13084,-1.67245 -2.61771,-1.24634 -5.98118,-0.27274 -9.6486,2.79292 -4.18975,3.50228 -8.65808,3.96654 -14.27271,1.48291 -2.61631,-1.15731 -4.47827,-2.38286 -4.13769,-2.72344 0.34057,-0.34058 -0.0399,-1.56025 -0.84547,-2.71038 -4.66053,-6.65384 2.48306,-18.25685 16.18322,-26.28568 2.39365,-1.40277 4.33778,-2.84523 4.32029,-3.20547 -0.0465,-0.9582 -2.58545,-4.15498 -3.29993,-4.15498 -0.33618,0 -3.21157,-1.17653 -6.38976,-2.61452 -4.28032,-1.93665 -7.21051,-2.56889 -11.30171,-2.43852 -9.57329,0.30505 -15.9768,-3.57751 -15.9768,-9.68702 0,-1.86528 0.4604,-4.25169 1.02311,-5.30313 0.82674,-1.54477 0.25561,-3.0361 -2.97556,-7.76977 C 8.09947,79.66572 2.78964,59.00503 2.70751,29.31912 L 2.65661,10.92616 6.38905,9.62755 c 2.05285,-0.71424 9.47785,-2.33741 16.5,-3.60704 11.64012,-2.10459 15.5714,-2.30385 44.51943,-2.25656 21.29249,0.0348 32.10685,0.40685 32.82948,1.12948 0.68054,0.68054 1.28972,10.35547 1.65329,26.25724 0.51935,22.71525 0.72701,25.02833 2.12175,23.6336 1.13481,-1.13482 1.58215,-3.87694 1.68179,-10.30912 0.0747,-4.81969 0.63239,-11.12808 1.2394,-14.01864 1.35388,-6.44713 5.68354,-14.6132 9.41077,-17.74946 7.51762,-6.32566 24.73675,-8.64601 33.32149,-4.4902 7.12662,3.44993 11.96922,8.42321 15.8504,16.27812 2.00187,4.05146 3.63976,8.35988 3.63976,9.57425 0,3.59875 5.74458,27.85718 9.15091,38.64286 5.84075,18.49388 13.12145,35.47989 17.3595,40.5 1.25167,1.48264 8.48959,16.50551 8.48959,17.6208 0,0.31732 0.65453,1.99495 1.45452,3.72807 2.49517,5.40566 5.53879,13.65113 5.03898,13.65113 -0.26252,0 0.16662,1.6875 0.95364,3.75 3.64405,9.54972 5.05327,19.62051 5.00255,35.75 -0.05,15.90605 -0.0698,16.04404 -3.37513,23.5 -4.01669,9.0607 -8.90096,16.10374 -14.977,21.59664 l -4.53156,4.09664 2.55864,2.40336 c 3.24312,3.0463 4.31645,8.1519 2.46469,11.72403 -0.76392,1.47363 -4.1057,4.25196 -7.42617,6.17406 -4.54245,2.62946 -6.82787,4.79928 -9.23054,8.76366 -3.57585,5.90014 -5.36132,6.74554 -14.15303,6.70128 -4.89403,-0.0246 -6.14653,-0.43703 -8.67002,-2.85469 l -2.9496,-2.8259 -5.36064,2.53599 c -6.74338,3.19013 -16.11314,4.25157 -20.39967,2.31094 z m -10.19201,-44.64565 c 2.39152,-1.97129 4.37958,-4.93395 5.72639,-8.5336 l 2.06304,-5.51397 -2.58934,-6.2164 c -2.92406,-7.01998 -7.16206,-11.99186 -12.61958,-14.80488 -2.04152,-1.05227 -4.51652,-2.71475 -5.5,-3.69438 -3.12386,-3.11164 -10.59682,-8.80865 -16.5126,-12.5884 -3.14844,-2.01162 -6.52344,-4.47109 -7.5,-5.4655 -0.97656,-0.99441 -3.209,-2.79789 -4.96097,-4.00773 l -3.18541,-2.19971 -0.76949,4.77211 c -1.35821,8.42317 -0.99452,33.39426 0.54285,37.2721 2.54567,6.42118 7.34417,15.96044 8.47765,16.85329 0.61589,0.48514 3.59481,1.64875 6.61981,2.5858 3.025,0.93705 6.4,2.09839 7.5,2.58077 3.1595,1.38551 5.5405,1.73996 12.52216,1.86414 5.86746,0.10436 6.88988,-0.18711 10.18549,-2.90364 z M 86.39987,202.46208 c -2.29009,-3.32694 -5.59478,-17.58217 -5.04215,-21.75 0.33535,-2.52916 0.51944,-2.21527 1.17299,2 0.42637,2.75 1.03423,5.675 1.3508,6.5 0.31657,0.825 0.73221,2.30093 0.92363,3.27985 0.19143,0.97892 1.47383,4.00146 2.84977,6.71676 1.37595,2.7153 2.50172,5.17686 2.50172,5.47015 0,1.45148 -2.07425,0.22752 -3.75677,-2.21676 z m 43.46709,-71 c 0.35615,-0.9625 3.31071,-4.675 6.56567,-8.25 5.79835,-6.36846 10.80314,-15.29818 12.18367,-21.73853 0.38181,-1.78119 1.10958,-3.49525 1.61727,-3.80902 1.32661,-0.81989 1.13671,-6.72093 -0.32694,-10.15935 -0.6875,-1.61509 -2.5538,-4.47925 -4.14733,-6.36481 -2.58315,-3.05653 -3.39644,-3.41076 -7.5,-3.26663 -2.53147,0.0889 -6.59689,1.01903 -9.03428,2.06694 l -4.43161,1.90528 0.25256,6.18837 c 0.38842,9.51728 -2.82405,15.11085 -15.38871,26.79484 -5.61009,5.21687 -11.23861,10.9247 -12.50784,12.68406 -1.26924,1.75937 -2.02134,2.94585 -1.67135,2.63662 0.34999,-0.30922 4.80834,0.20918 9.90745,1.15199 5.09911,0.94282 12.54773,1.75832 16.55249,1.81223 6.07673,0.0818 7.38852,-0.19152 7.92895,-1.65199 z m -17.06749,-23.5 c 8.91695,-9.22531 11.73064,-19.34495 7.36812,-26.5 -1.96824,-3.22815 -2.03503,-3.25 -9.93499,-3.25 h -7.95342 l -0.51714,4.25 c -0.28443,2.3375 -0.78423,8.525 -1.11068,13.75 -0.32644,5.225 -0.82967,10.45106 -1.11827,11.61347 -0.42503,1.71185 0.20197,2.41468 3.2994,3.69848 2.10328,0.87174 4.06451,1.60818 4.3583,1.63652 0.29379,0.0283 2.81769,-2.31097 5.60868,-5.19847 z M 80.62068,97.07244 c 3.50565,-4.16623 3.19564,-8.79337 -0.71405,-10.65797 -3.53448,-1.68565 -3.52146,-3.20239 0.0275,-3.20239 7.89212,0 9.45405,-6.66982 3.61971,-15.45698 -1.98154,-2.98442 -3.40694,-6.01379 -3.16756,-6.73195 0.27504,-0.8251 0.91103,-0.38647 1.72777,1.19159 1.73653,3.35525 5.12997,6.99734 6.5196,6.99734 0.77793,0 0.93544,-1.75284 0.50716,-5.64384 -0.76295,-6.93147 -3.52842,-9.82388 -8.3985,-8.78405 -6.81528,1.45516 -7.2239,4.64664 -1.85249,14.46855 2.05324,3.75448 3.42265,7.13684 3.04312,7.51637 -1.34703,1.34703 -3.59722,-0.46519 -4.24613,-3.41969 -0.38074,-1.73349 -2.10793,-4.10338 -4.09535,-5.61926 -6.02392,-4.59467 -8.17173,-11.51808 -3.57319,-11.51808 2.10464,0 3.13837,-1.83855 3.13837,-5.58179 0,-1.33001 0.45,-2.41821 1,-2.41821 0.55,0 1,-1.9875 1,-4.41667 0,-2.42916 0.46416,-4.57138 1.03147,-4.76049 0.69323,-0.23107 0.651,-1.43526 -0.12877,-3.67212 -0.65355,-1.87475 -0.90623,-5.47312 -0.57859,-8.23951 0.5552,-4.68777 0.47166,-4.91121 -1.83604,-4.91121 -1.42078,0 -2.87409,-0.85276 -3.52451,-2.06808 -1.03172,-1.92779 -1.268,-1.96247 -3.48303,-0.51112 -1.46223,0.95809 -2.61132,1.1766 -2.9874,0.56808 -1.04831,-1.6962 -3.49313,-1.08184 -3.49313,0.87779 0,1.29968 -1.5397,2.50655 -5.069,3.97326 -4.55121,1.8914 -5.03642,2.39023 -4.75,4.88333 0.29092,2.53232 0.64909,2.75737 4.069,2.55664 4.34432,-0.25498 4.81016,0.97935 1.25,3.31206 -3.85421,2.52537 -3.01755,3.40666 3.25,3.42335 4.0814,0.0109 5.31471,0.29662 4.25,0.98469 -0.825,0.53316 -3.075,0.98615 -5,1.00665 -4.07225,0.0434 -10.52639,2.81842 -13.75,5.91201 -2.73179,2.62161 -2.9166,1.50666 -0.31205,-1.88265 1.85857,-2.41857 1.85829,-2.51342 -0.0153,-5.14463 -1.04983,-1.47435 -2.25321,-5.09055 -2.67419,-8.03601 -0.76258,-5.33547 -0.77969,-5.35654 -4.60695,-5.6717 -2.27856,-0.18762 -3.59975,0.0749 -3.24727,0.64522 0.32685,0.52885 -0.10667,1.23052 -0.96337,1.55926 -0.8567,0.32875 -1.30131,1.01247 -0.98803,1.51938 0.31329,0.50691 0.0138,1.10691 -0.66545,1.33334 -0.88451,0.29484 -0.67341,1.20614 0.74377,3.2107 4.71366,6.66736 5.46859,8.22567 5.47357,11.29843 0.007,4.0251 -0.83321,4.07181 -4.49473,0.25 -3.33735,-3.48343 -6.44049,-3.82823 -9,-1 -1.32019,1.45879 -1.44331,2 -0.45499,2 0.97357,0 1.04976,0.30522 0.27066,1.08433 -2.67282,2.67282 1.77918,7.65511 5.7221,6.40368 1.15122,-0.36538 1.96223,-0.16053 1.96223,0.49563 0,0.61513 1.67945,1.82013 3.73211,2.67779 3.62515,1.51468 11.18944,1.36877 15.93281,-0.30735 1.2452,-0.44 1.51364,-0.31851 0.83508,0.37794 -0.55,0.56451 -2.70802,1.57241 -4.79559,2.23978 -3.26194,1.0428 -3.61543,1.43049 -2.51417,2.75743 0.70479,0.84921 3.31281,2.43684 5.7956,3.52805 l 4.51416,1.98402 -3,1.00984 c -4.80915,1.61882 -6.5,3.6657 -6.5,7.86866 0,2.84989 -0.53046,4.09372 -2.1053,4.93655 -1.89845,1.01602 -6.76096,0.69967 -10.33678,-0.6725 -0.71502,-0.27438 -2.07458,0.27567 -3.02124,1.22233 -1.93669,1.93669 -1.51058,6.56278 0.81909,8.89245 1.36554,1.36554 5.64423,0.9911 5.64423,-0.49394 0,-1.20354 5.00579,-2.82337 11,-3.55951 7.57366,-0.93011 9.17382,-1.90443 8.37234,-5.09779 -0.64551,-2.57194 -0.64501,-2.57215 1.99099,-0.84498 2.59172,1.69816 2.63727,1.68729 2.6721,-0.6374 0.0195,-1.30076 0.70123,-3.49001 1.51497,-4.86501 1.46942,-2.4829 1.47556,-2.47598 0.89823,1.01041 -0.8992,5.43004 0.8744,8.68669 6.11838,11.23441 4.33049,2.10391 4.58308,2.44288 4.08901,5.48743 -0.41455,2.55459 -0.0675,3.56656 1.6312,4.75637 2.91042,2.03854 3.14301,1.97722 6.17683,-1.62827 z M 60.1073,27.77152 c 0.65755,-0.79231 1.83765,-1.19416 2.62244,-0.89301 2.34882,0.90132 1.61504,2.33357 -1.19555,2.33357 -2.16959,0 -2.41599,-0.24876 -1.42689,-1.44056 z m 77.06029,23.19056 c 1.99297,-3.26871 2.47461,-7.33637 1.36076,-11.49232 -1.04066,-3.88289 -12.3909,-5.58106 -15.08992,-2.25768 -0.67,0.825 -1.22587,3.3 -1.23525,5.5 -0.0165,3.86865 0.0243,3.91791 1.24136,1.5 1.50571,-2.99124 5.78514,-3.82183 7.71435,-1.49727 1.89587,2.28438 1.64554,7.12398 -0.49058,9.48437 -1.78915,1.97698 -1.76509,2.0129 1.34803,2.0129 2.50292,0 3.58653,-0.68367 5.15125,-3.25 z M 118.14132,43.4269 c -0.008,-2.59315 -0.38988,-5.30547 -0.84768,-6.02737 -1.12577,-1.77523 -7.10896,-1.84246 -8.21695,-0.0923 -1.21886,1.92522 -1.15335,5.1671 0.0889,4.39935 3.26587,-2.01841 7.84344,3.04432 5.95054,6.58123 -1.01635,1.89907 -0.93426,1.98117 0.96482,0.96482 1.65445,-0.88544 2.07258,-2.06771 2.06038,-5.8257 z M 52.15663,36.21208 c 1.23654,-0.79912 1.13994,-0.97206 -0.55,-0.98469 -1.1275,-0.008 -2.59,-0.55531 -3.25,-1.21531 -0.66667,-0.66667 -1.2,-0.75556 -1.2,-0.2 0,1.0707 2.03891,3.41005 2.95,3.38469 0.3025,-0.008 1.225,-0.45153 2.05,-0.98469 z"
       id="path3089" />
    <path
       style="fill:#a2a2a2"
       d="m 130.55629,271.83809 c -1.70519,-0.77198 -3.40088,-2.1868 -3.7682,-3.14404 -0.68641,-1.78873 -1.13956,-1.78314 -11.42091,0.14099 -5.68962,1.06481 -9.082,-4.2576 -6.17537,-9.6887 0.56935,-1.06384 1.63367,-1.93426 2.36515,-1.93426 0.73147,0 2.40314,-0.83456 3.71481,-1.85457 1.31167,-1.02002 4.18486,-2.4534 6.38486,-3.1853 l 4,-1.33072 -3,-0.65071 c -4.61524,-1.00106 -19.20816,-7.68183 -24.03787,-11.00475 -2.37736,-1.63567 -5.3664,-2.97465 -6.6423,-2.9755 -1.27591,-8.6e-4 -3.76438,-0.78836 -5.52993,-1.75 -6.89531,-3.75567 -14.88086,-8.74676 -16.72846,-10.45554 -1.06621,-0.9861 -2.24919,-1.79291 -2.62885,-1.79291 -1.40545,0 -12.5369,-7.15238 -15.57695,-10.00879 -3.97406,-3.73399 -14.38858,-21.41934 -15.06386,-25.58059 -0.64577,-3.97943 1.06417,-7.21087 4.23708,-8.00722 1.69871,-0.42635 2.47114,-1.31329 2.47114,-2.83749 0,-4.03167 3.95829,-6.56591 10.25543,-6.56591 3.0946,0 5.90465,0.45 6.24457,1 1.10137,1.78205 3.0961,1.06924 6.58333,-2.35252 1.87917,-1.84389 4.31667,-3.83862 5.41667,-4.43275 2,-1.08023 2,-1.08023 0,-1.73816 -1.1,-0.36186 -2.95888,-1.11446 -4.13084,-1.67245 -2.61771,-1.24634 -5.98118,-0.27274 -9.6486,2.79292 -4.18975,3.50228 -8.65808,3.96654 -14.27271,1.48291 -2.61631,-1.15731 -4.47827,-2.38286 -4.13769,-2.72344 0.34057,-0.34058 -0.0399,-1.56025 -0.84547,-2.71038 -4.66053,-6.65384 2.48306,-18.25685 16.18322,-26.28568 2.39365,-1.40277 4.33778,-2.84523 4.32029,-3.20547 -0.0465,-0.9582 -2.58545,-4.15498 -3.29993,-4.15498 -0.33618,0 -3.21157,-1.17653 -6.38976,-2.61452 -4.28032,-1.93665 -7.21051,-2.56889 -11.30171,-2.43852 -9.57329,0.30505 -15.9768,-3.57751 -15.9768,-9.68702 0,-1.86528 0.4604,-4.25169 1.02311,-5.30313 0.82674,-1.54477 0.25561,-3.0361 -2.97556,-7.76977 C 8.09947,79.66572 2.78964,59.00503 2.70751,29.31912 L 2.65661,10.92616 6.38905,9.62755 c 2.05285,-0.71424 9.47785,-2.33741 16.5,-3.60704 11.64012,-2.10459 15.5714,-2.30385 44.51943,-2.25656 21.29249,0.0348 32.10685,0.40685 32.82948,1.12948 0.68054,0.68054 1.28972,10.35547 1.65329,26.25724 0.51935,22.71525 0.72701,25.02833 2.12175,23.6336 1.13481,-1.13482 1.58215,-3.87694 1.68179,-10.30912 0.0747,-4.81969 0.63239,-11.12808 1.2394,-14.01864 1.35388,-6.44713 5.68354,-14.6132 9.41077,-17.74946 7.51762,-6.32566 24.73675,-8.64601 33.32149,-4.4902 7.12662,3.44993 11.96922,8.42321 15.8504,16.27812 2.00187,4.05146 3.63976,8.35988 3.63976,9.57425 0,3.59875 5.74458,27.85718 9.15091,38.64286 5.84075,18.49388 13.12145,35.47989 17.3595,40.5 1.25167,1.48264 8.48959,16.50551 8.48959,17.6208 0,0.31732 0.65453,1.99495 1.45452,3.72807 2.49517,5.40566 5.53879,13.65113 5.03898,13.65113 -0.26252,0 0.16662,1.6875 0.95364,3.75 3.64405,9.54972 5.05327,19.62051 5.00255,35.75 -0.05,15.90605 -0.0698,16.04404 -3.37513,23.5 -4.01669,9.0607 -8.90096,16.10374 -14.977,21.59664 l -4.53156,4.09664 2.55864,2.40336 c 3.24312,3.0463 4.31645,8.1519 2.46469,11.72403 -0.76392,1.47363 -4.1057,4.25196 -7.42617,6.17406 -4.54245,2.62946 -6.82787,4.79928 -9.23054,8.76366 -3.57585,5.90014 -5.36132,6.74554 -14.15303,6.70128 -4.89403,-0.0246 -6.14653,-0.43703 -8.67002,-2.85469 l -2.9496,-2.8259 -5.36064,2.53599 c -6.74338,3.19013 -16.11314,4.25157 -20.39967,2.31094 z m 14.84197,-11.99456 c 3.7079,-0.72317 6.93984,-1.11665 7.18209,-0.8744 0.8923,0.89231 20.27257,-5.76397 21.84673,-7.5034 3.2372,-3.57706 -0.81573,-5.30084 -16.9133,-7.19351 -10.15274,-1.19371 -9.82788,-1.26837 -20.55843,4.72496 -4.21966,2.35681 -9.94165,4.95908 -12.71552,5.78283 -5.37806,1.59712 -11.97089,5.34068 -12.04087,6.8371 -0.057,1.21816 24.61869,-0.10007 33.1993,-1.77358 z m -25.03398,-32.65109 c 2.39152,-1.97129 4.37958,-4.93395 5.72639,-8.5336 l 2.06304,-5.51397 -2.58934,-6.2164 c -2.92406,-7.01998 -7.16206,-11.99186 -12.61958,-14.80488 -2.04152,-1.05227 -4.51652,-2.71475 -5.5,-3.69438 -3.12386,-3.11164 -10.59682,-8.80865 -16.5126,-12.5884 -3.14844,-2.01162 -6.52344,-4.47109 -7.5,-5.4655 -0.97656,-0.99441 -3.209,-2.79789 -4.96097,-4.00773 l -3.18541,-2.19971 -0.76949,4.77211 c -1.35821,8.42317 -0.99452,33.39426 0.54285,37.2721 2.54567,6.42118 7.34417,15.96044 8.47765,16.85329 0.61589,0.48514 3.59481,1.64875 6.61981,2.5858 3.025,0.93705 6.4,2.09839 7.5,2.58077 3.1595,1.38551 5.5405,1.73996 12.52216,1.86414 5.86746,0.10436 6.88988,-0.18711 10.18549,-2.90364 z M 86.39987,202.46208 c -2.29009,-3.32694 -5.59478,-17.58217 -5.04215,-21.75 0.33535,-2.52916 0.51944,-2.21527 1.17299,2 0.42637,2.75 1.03423,5.675 1.3508,6.5 0.31657,0.825 0.73221,2.30093 0.92363,3.27985 0.19143,0.97892 1.47383,4.00146 2.84977,6.71676 1.37595,2.7153 2.50172,5.17686 2.50172,5.47015 0,1.45148 -2.07425,0.22752 -3.75677,-2.21676 z m -12.24324,11.37573 c 0,-0.20585 -0.72911,-2.34335 -1.62025,-4.75 -1.79048,-4.83549 -2.57429,-32.87796 -1.07015,-38.28727 0.80311,-2.88822 0.79109,-2.89829 -1.5,-1.25735 -5.60751,4.01626 -8.56242,4.69369 -14.10492,3.23366 -6.39826,-1.68547 -8.95936,-0.48737 -9.70468,4.53994 -0.35129,2.3695 -1.09485,3.47541 -2.5,3.7183 -1.1,0.19014 -2.52406,1.01618 -3.16457,1.83565 -2.72088,3.48106 14.82684,22.97291 25.74726,28.59984 4.78028,2.46311 7.91731,3.40107 7.91731,2.36723 z m 55.71033,-82.37573 c 0.35615,-0.9625 3.31071,-4.675 6.56567,-8.25 5.79835,-6.36846 10.80314,-15.29818 12.18367,-21.73853 0.38181,-1.78119 1.10958,-3.49525 1.61727,-3.80902 1.32661,-0.81989 1.13671,-6.72093 -0.32694,-10.15935 -0.6875,-1.61509 -2.5538,-4.47925 -4.14733,-6.36481 -2.58315,-3.05653 -3.39644,-3.41076 -7.5,-3.26663 -2.53147,0.0889 -6.59689,1.01903 -9.03428,2.06694 l -4.43161,1.90528 0.25256,6.18837 c 0.38842,9.51728 -2.82405,15.11085 -15.38871,26.79484 -5.61009,5.21687 -11.23861,10.9247 -12.50784,12.68406 -1.26924,1.75937 -2.02134,2.94585 -1.67135,2.63662 0.34999,-0.30922 4.80834,0.20918 9.90745,1.15199 5.09911,0.94282 12.54773,1.75832 16.55249,1.81223 6.07673,0.0818 7.38852,-0.19152 7.92895,-1.65199 z m -17.06749,-23.5 c 8.91695,-9.22531 11.73064,-19.34495 7.36812,-26.5 -1.96824,-3.22815 -2.03503,-3.25 -9.93499,-3.25 h -7.95342 l -0.51714,4.25 c -0.28443,2.3375 -0.78423,8.525 -1.11068,13.75 -0.32644,5.225 -0.82967,10.45106 -1.11827,11.61347 -0.42503,1.71185 0.20197,2.41468 3.2994,3.69848 2.10328,0.87174 4.06451,1.60818 4.3583,1.63652 0.29379,0.0283 2.81769,-2.31097 5.60868,-5.19847 z M 80.62068,97.07244 c 3.50565,-4.16623 3.19564,-8.79337 -0.71405,-10.65797 -3.53448,-1.68565 -3.52146,-3.20239 0.0275,-3.20239 7.89212,0 9.45405,-6.66982 3.61971,-15.45698 -1.98154,-2.98442 -3.40694,-6.01379 -3.16756,-6.73195 0.27504,-0.8251 0.91103,-0.38647 1.72777,1.19159 1.73653,3.35525 5.12997,6.99734 6.5196,6.99734 0.77793,0 0.93544,-1.75284 0.50716,-5.64384 -0.76295,-6.93147 -3.52842,-9.82388 -8.3985,-8.78405 -6.81528,1.45516 -7.2239,4.64664 -1.85249,14.46855 2.05324,3.75448 3.42265,7.13684 3.04312,7.51637 -1.34703,1.34703 -3.59722,-0.46519 -4.24613,-3.41969 -0.38074,-1.73349 -2.10793,-4.10338 -4.09535,-5.61926 -6.02392,-4.59467 -8.17173,-11.51808 -3.57319,-11.51808 2.10464,0 3.13837,-1.83855 3.13837,-5.58179 0,-1.33001 0.45,-2.41821 1,-2.41821 0.55,0 1,-1.9875 1,-4.41667 0,-2.42916 0.46416,-4.57138 1.03147,-4.76049 0.69323,-0.23107 0.651,-1.43526 -0.12877,-3.67212 -0.65355,-1.87475 -0.90623,-5.47312 -0.57859,-8.23951 0.5552,-4.68777 0.47166,-4.91121 -1.83604,-4.91121 -1.42078,0 -2.87409,-0.85276 -3.52451,-2.06808 -1.03172,-1.92779 -1.268,-1.96247 -3.48303,-0.51112 -1.46223,0.95809 -2.61132,1.1766 -2.9874,0.56808 -1.04831,-1.6962 -3.49313,-1.08184 -3.49313,0.87779 0,1.29968 -1.5397,2.50655 -5.069,3.97326 -4.55121,1.8914 -5.03642,2.39023 -4.75,4.88333 0.29092,2.53232 0.64909,2.75737 4.069,2.55664 4.34432,-0.25498 4.81016,0.97935 1.25,3.31206 -3.85421,2.52537 -3.01755,3.40666 3.25,3.42335 4.0814,0.0109 5.31471,0.29662 4.25,0.98469 -0.825,0.53316 -3.075,0.98615 -5,1.00665 -4.07225,0.0434 -10.52639,2.81842 -13.75,5.91201 -2.73179,2.62161 -2.9166,1.50666 -0.31205,-1.88265 1.85857,-2.41857 1.85829,-2.51342 -0.0153,-5.14463 -1.04983,-1.47435 -2.25321,-5.09055 -2.67419,-8.03601 -0.76258,-5.33547 -0.77969,-5.35654 -4.60695,-5.6717 -2.27856,-0.18762 -3.59975,0.0749 -3.24727,0.64522 0.32685,0.52885 -0.10667,1.23052 -0.96337,1.55926 -0.8567,0.32875 -1.30131,1.01247 -0.98803,1.51938 0.31329,0.50691 0.0138,1.10691 -0.66545,1.33334 -0.88451,0.29484 -0.67341,1.20614 0.74377,3.2107 4.71366,6.66736 5.46859,8.22567 5.47357,11.29843 0.007,4.0251 -0.83321,4.07181 -4.49473,0.25 -3.33735,-3.48343 -6.44049,-3.82823 -9,-1 -1.32019,1.45879 -1.44331,2 -0.45499,2 0.97357,0 1.04976,0.30522 0.27066,1.08433 -2.67282,2.67282 1.77918,7.65511 5.7221,6.40368 1.15122,-0.36538 1.96223,-0.16053 1.96223,0.49563 0,0.61513 1.67945,1.82013 3.73211,2.67779 3.62515,1.51468 11.18944,1.36877 15.93281,-0.30735 1.2452,-0.44 1.51364,-0.31851 0.83508,0.37794 -0.55,0.56451 -2.70802,1.57241 -4.79559,2.23978 -3.26194,1.0428 -3.61543,1.43049 -2.51417,2.75743 0.70479,0.84921 3.31281,2.43684 5.7956,3.52805 l 4.51416,1.98402 -3,1.00984 c -4.80915,1.61882 -6.5,3.6657 -6.5,7.86866 0,2.84989 -0.53046,4.09372 -2.1053,4.93655 -1.89845,1.01602 -6.76096,0.69967 -10.33678,-0.6725 -0.71502,-0.27438 -2.07458,0.27567 -3.02124,1.22233 -1.93669,1.93669 -1.51058,6.56278 0.81909,8.89245 1.36554,1.36554 5.64423,0.9911 5.64423,-0.49394 0,-1.20354 5.00579,-2.82337 11,-3.55951 7.57366,-0.93011 9.17382,-1.90443 8.37234,-5.09779 -0.64551,-2.57194 -0.64501,-2.57215 1.99099,-0.84498 2.59172,1.69816 2.63727,1.68729 2.6721,-0.6374 0.0195,-1.30076 0.70123,-3.49001 1.51497,-4.86501 1.46942,-2.4829 1.47556,-2.47598 0.89823,1.01041 -0.8992,5.43004 0.8744,8.68669 6.11838,11.23441 4.33049,2.10391 4.58308,2.44288 4.08901,5.48743 -0.41455,2.55459 -0.0675,3.56656 1.6312,4.75637 2.91042,2.03854 3.14301,1.97722 6.17683,-1.62827 z M 60.1073,27.77152 c 0.65755,-0.79231 1.83765,-1.19416 2.62244,-0.89301 2.34882,0.90132 1.61504,2.33357 -1.19555,2.33357 -2.16959,0 -2.41599,-0.24876 -1.42689,-1.44056 z m 70.31156,45.19056 c 1.46707,-0.9625 3.32619,-1.75 4.13138,-1.75 1.97981,0 8.60639,-6.35779 8.60639,-8.25729 0,-0.83663 -0.84874,-2.56929 -1.88608,-3.85035 -1.668,-2.05989 -2.79536,-2.34225 -9.75,-2.44198 -4.32516,-0.062 -9.77642,-0.70997 -12.11392,-1.43987 -6.63759,-2.07263 -10.5035,-0.3695 -20.59688,9.07395 -4.75922,4.45276 -8.65312,8.47404 -8.65312,8.93618 0,1.47319 4.10239,1.79161 21.04741,1.63363 13.90187,-0.12961 16.97387,-0.43405 19.21482,-1.90427 z M 106.13763,59.73497 c 1.44013,-1.73524 2.019,-1.91584 2.019,-0.62988 0,0.49116 -0.73865,1.17646 -1.64144,1.52289 -1.37248,0.52667 -1.43434,0.38034 -0.37756,-0.89301 z m 9.04796,0.51617 c -0.80907,-0.51167 -1.2107,-1.19066 -0.8925,-1.50885 0.3182,-0.3182 1.14776,0.10733 1.84348,0.94562 1.4426,1.73822 1.16599,1.90204 -0.95098,0.56323 z m 21.982,-9.28906 c 1.99297,-3.26871 2.47461,-7.33637 1.36076,-11.49232 -1.04066,-3.88289 -12.3909,-5.58106 -15.08992,-2.25768 -0.67,0.825 -1.22587,3.3 -1.23525,5.5 -0.0165,3.86865 0.0243,3.91791 1.24136,1.5 1.50571,-2.99124 5.78514,-3.82183 7.71435,-1.49727 1.89587,2.28438 1.64554,7.12398 -0.49058,9.48437 -1.78915,1.97698 -1.76509,2.0129 1.34803,2.0129 2.50292,0 3.58653,-0.68367 5.15125,-3.25 z M 118.14132,43.4269 c -0.008,-2.59315 -0.38988,-5.30547 -0.84768,-6.02737 -1.12577,-1.77523 -7.10896,-1.84246 -8.21695,-0.0923 -1.21886,1.92522 -1.15335,5.1671 0.0889,4.39935 3.26587,-2.01841 7.84344,3.04432 5.95054,6.58123 -1.01635,1.89907 -0.93426,1.98117 0.96482,0.96482 1.65445,-0.88544 2.07258,-2.06771 2.06038,-5.8257 z M 52.15663,36.21208 c 1.23654,-0.79912 1.13994,-0.97206 -0.55,-0.98469 -1.1275,-0.008 -2.59,-0.55531 -3.25,-1.21531 -0.66667,-0.66667 -1.2,-0.75556 -1.2,-0.2 0,1.0707 2.03891,3.41005 2.95,3.38469 0.3025,-0.008 1.225,-0.45153 2.05,-0.98469 z"
       id="path3087" />
    <path
       style="fill:#c38a02"
       d="m 131.65886,271.63668 c -1.64877,-0.8597 -3.79788,-2.28717 -4.7758,-3.17217 -1.57756,-1.42768 -2.524,-1.46082 -8.39469,-0.29391 -6.51486,1.29495 -6.64492,1.27846 -8.45197,-1.07167 -1.90978,-2.48372 -2.37679,-5.61215 -1.11446,-7.46554 1.01225,-1.4862 9.88424,-6.0072 14.71877,-7.50039 3.38786,-1.04638 3.68716,-1.34649 2,-2.00544 -1.09125,-0.4262 -3.03629,-0.80654 -4.32234,-0.84519 -1.28604,-0.0387 -5.25493,-1.42029 -8.81977,-3.07029 -3.56483,-1.65 -6.71135,-3 -6.99227,-3 -0.28092,0 -2.83703,-1.52065 -5.68023,-3.37923 -2.84321,-1.85857 -6.96037,-3.69836 -9.14924,-4.08842 -3.53275,-0.62953 -11.38958,-5.22111 -29.57248,-17.28235 -2.69475,-1.7875 -5.25248,-3.25 -5.68386,-3.25 -1.43734,0 -6.22395,-5.0217 -7.89429,-8.282 -0.90677,-1.7699 -1.97054,-3.443 -2.36395,-3.718 -1.75556,-1.22719 -9.00565,-15.9307 -9.00565,-18.26388 0,-2.85472 1.93215,-5.26242 5.00592,-6.238 1.2166,-0.38613 1.99408,-1.51339 1.99408,-2.89119 0,-4.07063 3.93691,-6.60693 10.25543,-6.60693 3.0946,0 5.90465,0.45 6.24457,1 1.10137,1.78205 3.0961,1.06924 6.58333,-2.35252 1.87917,-1.84389 4.29478,-3.82499 5.36804,-4.40244 1.77255,-0.95371 1.59034,-1.20077 -1.98839,-2.69606 -4.36898,-1.82548 -7.8805,-1.37642 -10.96298,1.40198 -4.37312,3.94171 -9.03473,4.3628 -16.5,1.49046 -1.91672,-0.73747 -5.0187,-6.85053 -4.93863,-9.73252 0.19674,-7.08121 8.35629,-16.63655 18.07545,-21.16748 4.28143,-1.99595 4.5468,-2.3298 3.46241,-4.35601 -0.64593,-1.20692 -4.51499,-3.79533 -8.59793,-5.75202 -5.99683,-2.87391 -8.48801,-3.52995 -12.96241,-3.41361 -8.55969,0.22257 -8.77742,0.16841 -12.00441,-2.98608 -3.23151,-3.1589 -3.97725,-7.40361 -1.96219,-11.16877 0.88762,-1.65853 0.38054,-3.06803 -2.94433,-8.18426 C 12.49184,84.90143 7.58521,72.09315 4.70057,56.21208 2.87018,46.1351 1.73604,24.9638 2.59629,16.93093 3.19528,11.33767 3.6014,10.35134 5.47514,9.93915 23.17292,6.04594 32.76255,4.63501 47.97806,3.68566 61.71814,2.82836 97.7153,4.16167 99.63737,5.59909 c 1.21593,0.90932 1.61177,5.73801 2.16321,26.38751 l 0.67494,25.27453 2.30189,-2.16251 c 1.76041,-1.65383 2.07575,-2.58506 1.34055,-3.95879 -2.09968,-3.92329 -0.11624,-19.77564 3.55687,-28.42775 2.08216,-4.90457 8.15953,-11.16486 13.23447,-13.63279 3.93558,-1.91387 6.37174,-2.30993 14.24733,-2.31629 10.20674,-0.008 14.09076,1.28879 20.82302,6.95362 3.97617,3.34572 8.95071,12.05411 10.07281,17.63338 3.03892,15.10991 6.6577,30.45578 8.81053,37.36208 1.37156,4.4 2.66843,8.89418 2.88193,9.98707 1.08168,5.53699 9.7926,24.5832 17.67019,38.63542 4.63016,8.25939 10.01244,21.42497 14.25841,34.87751 3.3932,10.75069 4.8754,25.91473 4.10252,41.97182 -0.56702,11.78013 -0.80573,12.88932 -4.30417,20 -4.57856,9.30606 -8.15383,14.3422 -13.32293,18.76676 -4.59169,3.93032 -5.05798,6.45484 -1.49231,8.07947 1.375,0.62649 2.53443,1.93622 2.57651,2.91051 0.0421,0.97429 0.23534,2.61393 0.42945,3.64365 0.41912,2.22323 -4.28764,7.23439 -10.00596,10.65308 -4.56551,2.72949 -5.77188,4.02525 -8.4877,9.11662 -1.63468,3.06453 -2.74513,3.83441 -7.0045,4.85622 -6.2971,1.51065 -10.96927,0.69369 -14.44274,-2.52541 -2.80324,-2.59796 -6.30981,-2.60157 -9.56506,-0.01 -1.5039,1.19734 -10.68696,3.54252 -13.82629,3.53097 -0.92054,-0.003 -3.02271,-0.70955 -4.67148,-1.56924 z m 13.7394,-11.79315 c 3.7079,-0.72317 6.93984,-1.11665 7.18209,-0.8744 0.8923,0.89231 20.27257,-5.76397 21.84673,-7.5034 3.2372,-3.57706 -0.81573,-5.30084 -16.9133,-7.19351 -10.15274,-1.19371 -9.82788,-1.26837 -20.55843,4.72496 -4.21966,2.35681 -9.94165,4.95908 -12.71552,5.78283 -5.37806,1.59712 -11.97089,5.34068 -12.04087,6.8371 -0.057,1.21816 24.61869,-0.10007 33.1993,-1.77358 z m -25.68403,-31.81135 c 3.21576,-2.20347 5.43483,-5.70736 7.27082,-11.48051 2.36228,-7.42805 -4.13911,-18.36877 -15.32912,-25.79627 -3.02699,-2.0092 -8.31514,-5.84939 -11.75146,-8.53375 -8.43408,-6.5885 -10.17074,-7.88309 -17.94335,-13.37581 l -6.69552,-4.73155 -0.80448,3.79889 c -0.44247,2.0894 -0.79574,10.9989 -0.78505,19.7989 0.0187,15.37341 0.13335,16.27413 2.92823,23 4.70965,11.33377 6.37099,12.9608 16.36948,16.03147 4.77557,1.46664 9.13285,2.81152 9.68285,2.98863 0.55,0.1771 3.89715,0.35753 7.43812,0.40095 5.06279,0.0621 7.11773,-0.38673 9.61948,-2.10095 z m -45.5576,-14.19437 c 0,-0.20585 -0.72911,-2.34335 -1.62025,-4.75 -1.79048,-4.83549 -2.57429,-32.87796 -1.07015,-38.28727 0.80311,-2.88822 0.79109,-2.89829 -1.5,-1.25735 -5.60751,4.01626 -8.56242,4.69369 -14.10492,3.23366 -6.39826,-1.68547 -8.95936,-0.48737 -9.70468,4.53994 -0.35129,2.3695 -1.09485,3.47541 -2.5,3.7183 -1.1,0.19014 -2.52406,1.01618 -3.16457,1.83565 -2.72088,3.48106 14.82684,22.97291 25.74726,28.59984 4.78028,2.46311 7.91731,3.40107 7.91731,2.36723 z m 130.89335,-63.58736 c -0.70735,-2.36092 -2.1412,-4.58667 -3.31931,-5.15252 -1.75858,-0.84466 -1.84589,-0.79767 -0.57404,0.30898 0.825,0.71785 1.5,1.75517 1.5,2.30517 0,1.36535 2.85499,7.47834 3.28966,7.04367 0.19193,-0.19192 -0.21141,-2.21931 -0.89631,-4.5053 z M 56.64955,139.22353 c 0.35034,-0.56686 -0.0511,-0.7345 -0.94098,-0.39301 -1.73242,0.66479 -2.04939,1.38156 -0.61096,1.38156 0.51754,0 1.21592,-0.44485 1.55194,-0.98855 z m 4.94821,-2.54325 c 1.06762,-0.80751 1.51762,-1.45389 1,-1.4364 -0.51762,0.0175 -1.81464,0.6925 -2.88226,1.5 -1.06762,0.80751 -1.51762,1.45389 -1,1.4364 0.51762,-0.0175 1.81464,-0.6925 2.88226,-1.5 z m 73.03604,-0.56614 c 0.53745,-0.52602 -0.58755,-0.42737 -2.5,0.21922 -4.47773,1.51392 -5.34694,2.36633 -1.47717,1.44863 1.65,-0.39129 3.43973,-1.14182 3.97717,-1.66785 z m 64.87217,-0.43409 c -0.30983,-0.80738 -0.99173,-1.46797 -1.51535,-1.46797 -0.52361,0 -0.73016,-0.35899 -0.45899,-0.79775 0.27117,-0.43876 0.0796,-1.45126 -0.42567,-2.25 -0.72244,-1.14201 -0.92198,-0.98684 -0.93402,0.72632 -0.008,1.19822 0.63826,2.83214 1.43707,3.63095 0.79881,0.79881 1.13631,1.8031 0.75,2.23176 -0.38631,0.42865 -0.15953,0.46781 0.50395,0.087 0.66348,-0.38079 0.95283,-1.35294 0.64301,-2.16033 z m -125.111,-2.17523 c -1.24391,-0.23919 -3.04391,-0.23011 -4,0.0202 -0.95609,0.25029 0.0617,0.446 2.26166,0.4349 2.2,-0.0111 2.98225,-0.21589 1.73834,-0.45508 z m 57.20849,-4.39176 c 1.41985,-2.14554 2.98684,-3.90098 3.48219,-3.90098 1.26422,0 8.19989,-9.62573 10.42379,-14.46677 5.71346,-12.43712 6.91123,-22.01079 4.68262,-37.4277 -1.27457,-8.81709 -2.1489,-9.35788 -7.28957,-4.50874 -4.69403,4.42784 -11.27151,7.89141 -16.96518,8.93353 l -3.71933,0.68075 1.46933,3.51659 c 0.80812,1.93412 1.46932,5.50159 1.46932,7.92771 0,7.712 -3.86045,13.59814 -17.75802,27.07615 -6.93675,6.72734 -12.34154,12.50225 -12.01065,12.83314 1.17316,1.17316 28.86782,4.30631 31.95131,3.61471 0.92545,-0.20757 2.84434,-2.13285 4.26419,-4.27839 z M 90.15663,113.49593 c -0.825,-0.30704 -2.7375,-1.18307 -4.25,-1.94674 -1.5125,-0.76366 -2.75,-1.16629 -2.75,-0.89473 0,0.82713 5.40068,3.48012 7,3.43864 1.33333,-0.0346 1.33333,-0.10094 0,-0.59717 z m 29.9863,-14.97809 c 2.70931,-5.76382 2.68496,-13.55432 -0.0544,-17.40139 -1.99758,-2.80535 -2.3503,-2.90437 -10.34567,-2.90437 h -8.27758 l -0.64842,12.25 c -0.35663,6.7375 -0.90386,13.825 -1.21607,15.75 -0.52527,3.23869 -0.28307,3.66251 3.2441,5.6767 l 3.81174,2.17669 5.7363,-5.63183 c 3.15497,-3.09751 6.64247,-7.55962 7.75,-9.9158 z M 81.08854,97.30771 c 1.18106,-1.65865 2.06809,-4.46729 2.06809,-6.54827 0,-3.15465 -0.43637,-3.83357 -3.25,-5.05649 -1.7875,-0.77692 -3.025,-1.4612 -2.75,-1.52063 0.275,-0.0594 1.81507,-0.27961 3.42238,-0.4893 7.41535,-0.96742 8.67852,-7.27576 3.2258,-16.10987 -2.0065,-3.25078 -3.64818,-6.32724 -3.64818,-6.83657 0,-0.50933 1.29655,1.11838 2.88122,3.61715 2.47883,3.90871 5.70239,6.59807 6.70587,5.59459 0.16546,-0.16546 -0.0476,-2.86881 -0.47356,-6.00743 -0.93351,-6.87905 -3.19372,-9.73881 -7.69709,-9.73881 -7.20181,0 -8.45256,6.39664 -2.94204,15.04634 3.76375,5.90784 4.30993,7.95366 2.12342,7.95366 -0.77119,0 -1.905,-1.4625 -2.51957,-3.25 -0.61458,-1.7875 -3.1336,-5.11371 -5.59783,-7.39157 -3.51959,-3.25341 -4.48042,-4.83112 -4.48042,-7.35699 0,-2.59282 0.32337,-3.09133 1.67005,-2.57456 2.04746,0.78568 3.2943,-1.00045 3.31464,-4.74831 0.008,-1.55178 0.73183,-3.53795 1.60757,-4.41369 1.021,-1.021 1.39921,-2.55753 1.05417,-4.28274 -0.29595,-1.47976 -0.0566,-3.17201 0.53197,-3.76054 0.7601,-0.7601 0.74441,-2.00428 -0.0542,-4.29506 -1.40045,-4.01734 -1.4582,-9.6021 -0.10792,-10.43662 1.60605,-0.9926 0.0979,-2.48992 -2.50794,-2.48992 -1.49534,0 -2.60847,-0.74002 -3.00837,-2 -0.71892,-2.26513 -2.51331,-2.58669 -4.32496,-0.77504 -0.96234,0.96234 -1.642,0.96451 -3.17023,0.0101 -1.64321,-1.0262 -2.11064,-0.90585 -3.01023,0.77504 -0.58572,1.09444 -0.71162,2.00433 -0.27976,2.02198 0.43185,0.0177 -1.68982,1.25515 -4.71482,2.75 -4.73758,2.34114 -5.45336,3.06445 -5.16354,5.2179 0.48188,3.58051 1.46296,4.21686 4.63939,3.00918 1.54084,-0.58582 3.03912,-0.82755 3.32951,-0.53716 0.8565,0.85651 -0.0591,1.25881 -4.55536,2.00164 -3.51046,0.57996 -4.25,0.42583 -4.25,-0.88576 0,-0.87335 -0.4813,-1.5879 -1.06955,-1.5879 -0.58825,0 -0.92575,1.0125 -0.75,2.25 0.24464,1.72257 0.96419,2.24076 3.06955,2.21058 1.56677,-0.0225 2.75,0.50307 2.75,1.22141 0,0.69345 1.4625,1.68311 3.25,2.19923 3.21677,0.92881 3.22155,0.93933 0.46788,1.02859 -3.39177,0.10995 -9.45278,2.55637 -12.08608,4.87833 -1.90909,1.68336 -1.91227,1.66658 -0.19087,-1.00871 1.68891,-2.62481 1.67675,-2.81436 -0.3452,-5.38486 -1.2027,-1.52899 -2.09573,-4.12625 -2.09573,-6.09517 0,-5.31699 -1.51931,-7.2994 -5.5942,-7.2994 -2.09458,0 -3.27316,0.4056 -2.9058,1 0.33992,0.55 -0.0835,1 -0.94098,1 -0.85746,0 -1.55902,0.675 -1.55902,1.5 0,0.825 -0.45381,1.5 -1.00847,1.5 -1.16784,0 0.44195,3.14959 3.71868,7.27573 2.26376,2.85058 4.04216,9.30523 2.88313,10.46426 -0.3557,0.3557 -2.26103,-1.01528 -4.23408,-3.04663 -4.07354,-4.19392 -5.17225,-4.44788 -7.96925,-1.84208 -1.78325,1.66134 -2.09456,3.47588 -1.51896,8.85341 0.0709,0.66257 1.81645,1.52067 3.87895,1.90687 2.0625,0.3862 4.9577,1.59418 6.43379,2.68441 2.28152,1.68513 3.7804,1.90741 10,1.48301 4.02391,-0.27458 6.64121,-0.27257 5.81621,0.005 -0.825,0.27704 -2.57801,0.90286 -3.89557,1.39072 l -2.39557,0.88701 2.27115,2.41754 c 1.24914,1.32964 3.55948,2.70049 5.1341,3.04634 3.18683,0.69992 4.90467,2.47491 2.39525,2.47491 -0.88477,0 -2.93633,0.68656 -4.55902,1.52568 -2.58529,1.33691 -2.95034,2.06719 -2.95034,5.90218 0,3.93357 -0.29449,4.47915 -2.90985,5.39087 -1.97952,0.69006 -4.21776,0.68239 -7.00074,-0.024 -4.68736,-1.18978 -6.50395,-0.26351 -7.5343,3.8417 -0.46954,1.87081 -0.0944,3.02858 1.40189,4.32628 1.12365,0.97453 2.043,2.27476 2.043,2.88939 0,0.61462 2.616,-0.21185 5.81334,-1.83663 3.20849,-1.63043 8.35737,-3.25312 11.49094,-3.62141 5.91109,-0.69474 8.32852,-2.30262 7.33898,-4.88132 -0.64273,-1.67494 0.87878,-2.09511 1.85674,-0.51274 1.27214,2.05837 3.00767,0.88711 3.22334,-2.17533 0.12284,-1.74425 0.58362,-3.53163 1.02394,-3.97196 0.44033,-0.44032 0.6393,0.89086 0.44214,2.95819 -0.4151,4.35276 1.42974,7.05011 6.81058,9.95779 3.30299,1.78487 5.49331,6.23131 3.06955,6.23131 -2.01789,0 -1.06851,1.93669 1.68045,3.42802 3.90551,2.11878 4.84911,1.94372 7.18191,-1.33239 z M 60.42746,27.60791 c 0.33229,-0.33229 1.19479,-0.36782 1.91667,-0.079 0.79773,0.31923 0.56078,0.55619 -0.60417,0.60417 -1.05416,0.0434 -1.64479,-0.19293 -1.3125,-0.52522 z m 1.17917,67.7941 c -1.38457,-1.18063 -6.45,-3.23838 -6.45,-2.62022 0,0.28976 1.4625,1.1625 3.25,1.93942 3.78554,1.64535 4.51256,1.80003 3.2,0.6808 z m 68.81223,-22.43993 c 1.46707,-0.9625 3.32619,-1.75 4.13138,-1.75 1.97981,0 8.60639,-6.35779 8.60639,-8.25729 0,-0.83663 -0.84874,-2.56929 -1.88608,-3.85035 -1.668,-2.05989 -2.79536,-2.34225 -9.75,-2.44198 -4.32516,-0.062 -9.77642,-0.70997 -12.11392,-1.43987 -6.63759,-2.07263 -10.5035,-0.3695 -20.59688,9.07395 -4.75922,4.45276 -8.65312,8.47404 -8.65312,8.93618 0,1.47319 4.10239,1.79161 21.04741,1.63363 13.90187,-0.12961 16.97387,-0.43405 19.21482,-1.90427 z M 106.13763,59.73497 c 1.44013,-1.73524 2.019,-1.91584 2.019,-0.62988 0,0.49116 -0.73865,1.17646 -1.64144,1.52289 -1.37248,0.52667 -1.43434,0.38034 -0.37756,-0.89301 z m 9.04796,0.51617 c -0.80907,-0.51167 -1.2107,-1.19066 -0.8925,-1.50885 0.3182,-0.3182 1.14776,0.10733 1.84348,0.94562 1.4426,1.73822 1.16599,1.90204 -0.95098,0.56323 z m 22.16557,-7.77346 c 0.72614,-0.87494 1.27851,-4.22859 1.28831,-7.82187 0.0299,-10.97906 -6.39784,-15.75191 -13.3432,-9.90778 -2.69868,2.27079 -3.13757,3.29649 -3.1249,7.30294 0.0139,4.40388 0.0843,4.52363 1.27512,2.16997 1.58241,-3.12765 4.28653,-3.7022 6.78454,-1.44152 2.49551,2.2584 2.47789,7.21588 -0.0352,9.89089 l -1.96076,2.08714 3.92245,-0.37407 c 2.15736,-0.20574 4.49448,-1.0633 5.1936,-1.9057 z m -19.19453,-9.39641 c 0,-5.69456 -2.86082,-10.86919 -6.00908,-10.86919 -2.37242,0 -2.64339,0.47913 -3.49711,6.18346 -0.64632,4.31849 -0.54863,4.64364 1.25355,4.17236 2.79003,-0.72961 5.5456,2.3408 4.79276,5.34036 -0.54462,2.16991 -0.4031,2.30086 1.42767,1.32106 1.63194,-0.87339 2.03221,-2.08433 2.03221,-6.14805 z m -5.25014,1.54734 c -0.95295,-0.95296 -2.86349,0.5906 -2.1533,1.7397 0.42212,0.683 0.98146,0.66575 1.69964,-0.0524 0.58876,-0.58876 0.79291,-1.34803 0.45366,-1.68727 z m 16.35394,0.28727 c -1.28349,-1.28349 -2.58505,-0.2915 -1.63484,1.24598 0.36808,0.59556 1.12735,0.79971 1.68727,0.45366 0.683,-0.42212 0.66575,-0.98146 -0.0524,-1.69964 z m 11.8962,-10.04881 c 0,-0.18976 -1.0125,-1.20226 -2.25,-2.25 l -2.25,-1.90499 1.90499,2.25 c 1.79022,2.11444 2.59501,2.70524 2.59501,1.90499 z m 17,-7.95499 c 0,-1.57749 -2.00622,-3.7114 -3.45,-3.66959 -0.5775,0.0167 -0.2625,0.48908 0.7,1.04969 0.9625,0.5606 1.75,1.50202 1.75,2.09204 0,0.6495 -0.69045,0.53126 -1.75,-0.2997 -1.58606,-1.24387 -1.62143,-1.2085 -0.37756,0.37756 1.61912,2.06453 3.12756,2.28157 3.12756,0.45 z"
       id="path3085" />
    <path
       style="fill:#bc8403"
       d="m 131.65886,271.63668 c -1.64877,-0.8597 -3.79788,-2.28717 -4.7758,-3.17217 -1.57756,-1.42768 -2.524,-1.46082 -8.39469,-0.29391 -6.51486,1.29495 -6.64492,1.27846 -8.45197,-1.07167 -1.90978,-2.48372 -2.37679,-5.61215 -1.11446,-7.46554 1.01225,-1.4862 9.88424,-6.0072 14.71877,-7.50039 3.38786,-1.04638 3.68716,-1.34649 2,-2.00544 -1.09125,-0.4262 -3.03629,-0.80654 -4.32234,-0.84519 -1.28604,-0.0387 -5.25493,-1.42029 -8.81977,-3.07029 -3.56483,-1.65 -6.71135,-3 -6.99227,-3 -0.28092,0 -2.83703,-1.52065 -5.68023,-3.37923 -2.84321,-1.85857 -6.96037,-3.69836 -9.14924,-4.08842 -3.53275,-0.62953 -11.38958,-5.22111 -29.57248,-17.28235 -2.69475,-1.7875 -5.25248,-3.25 -5.68386,-3.25 -1.43734,0 -6.22395,-5.0217 -7.89429,-8.282 -0.90677,-1.7699 -1.97054,-3.443 -2.36395,-3.718 -1.75556,-1.22719 -9.00565,-15.9307 -9.00565,-18.26388 0,-2.85472 1.93215,-5.26242 5.00592,-6.238 1.2166,-0.38613 1.99408,-1.51339 1.99408,-2.89119 0,-4.07063 3.93691,-6.60693 10.25543,-6.60693 3.0946,0 5.90465,0.45 6.24457,1 1.10137,1.78205 3.0961,1.06924 6.58333,-2.35252 1.87917,-1.84389 4.29478,-3.82499 5.36804,-4.40244 1.77255,-0.95371 1.59034,-1.20077 -1.98839,-2.69606 -4.36898,-1.82548 -7.8805,-1.37642 -10.96298,1.40198 -4.37312,3.94171 -9.03473,4.3628 -16.5,1.49046 -1.91672,-0.73747 -5.0187,-6.85053 -4.93863,-9.73252 0.19674,-7.08121 8.35629,-16.63655 18.07545,-21.16748 4.28143,-1.99595 4.5468,-2.3298 3.46241,-4.35601 -0.64593,-1.20692 -4.51499,-3.79533 -8.59793,-5.75202 -5.99683,-2.87391 -8.48801,-3.52995 -12.96241,-3.41361 -8.55969,0.22257 -8.77742,0.16841 -12.00441,-2.98608 -3.23151,-3.1589 -3.97725,-7.40361 -1.96219,-11.16877 0.88781,-1.65889 0.37996,-3.06693 -2.95187,-8.18426 C 10.16157,81.35646 4.73123,63.58373 2.95865,40.21208 2.3538,32.23708 2.183,22.2918 2.5791,18.11145 l 0.72017,-7.60062 9.67868,-2.10125 c 20.49502,-4.4495 37.41745,-5.65441 65.24634,-4.6457 11.93173,0.43249 20.52185,1.1687 21.41308,1.83521 1.21593,0.90932 1.61177,5.73801 2.16321,26.38751 l 0.67494,25.27453 2.30189,-2.16251 c 1.76041,-1.65383 2.07575,-2.58506 1.34055,-3.95879 -2.09968,-3.92329 -0.11624,-19.77564 3.55687,-28.42775 2.08216,-4.90457 8.15953,-11.16486 13.23447,-13.63279 3.93558,-1.91387 6.37174,-2.30993 14.24733,-2.31629 10.20674,-0.008 14.09076,1.28879 20.82302,6.95362 3.97617,3.34572 8.95071,12.05411 10.07281,17.63338 3.03892,15.10991 6.6577,30.45578 8.81053,37.36208 1.37156,4.4 2.66843,8.89418 2.88193,9.98707 1.08168,5.53699 9.7926,24.5832 17.67019,38.63542 4.63016,8.25939 10.01244,21.42497 14.25841,34.87751 3.3932,10.75069 4.8754,25.91473 4.10252,41.97182 -0.56702,11.78013 -0.80573,12.88932 -4.30417,20 -4.57856,9.30606 -8.15383,14.3422 -13.32293,18.76676 -4.59169,3.93032 -5.05798,6.45484 -1.49231,8.07947 1.375,0.62649 2.53443,1.93622 2.57651,2.91051 0.0421,0.97429 0.23534,2.61393 0.42945,3.64365 0.41912,2.22323 -4.28764,7.23439 -10.00596,10.65308 -4.56551,2.72949 -5.77188,4.02525 -8.4877,9.11662 -1.63468,3.06453 -2.74513,3.83441 -7.0045,4.85622 -6.2971,1.51065 -10.96927,0.69369 -14.44274,-2.52541 -2.80324,-2.59796 -6.30981,-2.60157 -9.56506,-0.01 -1.5039,1.19734 -10.68696,3.54252 -13.82629,3.53097 -0.92054,-0.003 -3.02271,-0.70955 -4.67148,-1.56924 z m 5.68527,-2.10771 c -0.72188,-0.28887 -1.58438,-0.25335 -1.91667,0.0789 -0.33229,0.33229 0.25834,0.56864 1.3125,0.52522 1.16495,-0.048 1.4019,-0.28494 0.60417,-0.60416 z m 35.24442,-0.21407 c 1.24136,-0.48617 0.11465,-0.72913 -3.15214,-0.67972 -2.79624,0.0423 -4.5656,0.40751 -3.93192,0.81159 1.43926,0.91777 4.55186,0.85983 7.08406,-0.13187 z m -30.18192,-0.7651 c -0.6875,-0.27741 -1.8125,-0.27741 -2.5,0 -0.6875,0.27741 -0.125,0.50439 1.25,0.50439 1.375,0 1.9375,-0.22698 1.25,-0.50439 z m 6.88699,-1.96169 c 1.02363,-0.92638 3.69774,-1.67811 6.22519,-1.75 2.4369,-0.0693 4.1958,-0.51201 3.90868,-0.98375 -0.83676,-1.3748 -8.31066,0.24387 -11.04039,2.39107 -1.3751,1.08166 -2.13743,1.96665 -1.69407,1.96665 0.44337,0 1.61363,-0.73079 2.60059,-1.62397 z m 28.86301,-0.37603 c 0.5887,-1.1 0.84537,-2 0.57037,-2 -0.275,0 -0.98167,0.9 -1.57037,2 -0.5887,1.1 -0.84537,2 -0.57037,2 0.275,0 0.98167,-0.9 1.57037,-2 z m -49.59501,-1.11125 c -1.92088,-2.12886 -2.92445,-2.17641 -13.79736,-0.65376 -1.04081,0.14576 -2.07304,-0.24418 -2.29385,-0.86652 -0.28375,-0.79975 4.37609,-1.27446 15.89238,-1.61899 13.0336,-0.38993 18.1947,-0.98592 25.79384,-2.97861 5.225,-1.37013 11.10868,-2.78469 13.07484,-3.14346 4.02426,-0.73432 9.47974,-5.73982 8.64023,-7.92755 -0.97725,-2.54667 -10.9944,-4.05239 -26.71507,-4.01567 -2.29588,0.005 -6.25228,1.566 -11.5,4.53627 -4.4,2.49045 -10.39265,5.30584 -13.31699,6.25643 -5.94077,1.93111 -13.19114,6.30893 -13.1677,7.95074 0.0425,2.97317 1.6775,3.75124 5.59636,2.66315 5.45058,-1.5134 9.92617,-1.35257 11.38833,0.40922 0.68469,0.825 1.48453,1.5 1.77743,1.5 0.2929,0 -0.3247,-0.95006 -1.37244,-2.11125 z m 60.34501,-10.23141 c 2.3375,-1.47714 4.25,-2.90031 4.25,-3.16258 0,-1.20102 -10.53433,6.4481 -11.83238,8.59165 -1.41715,2.34024 -1.38872,2.33522 0.93541,-0.16488 1.31833,-1.41816 4.30947,-3.78705 6.64697,-5.26419 z m 7.52352,-8.7194 c -0.28321,-1.08301 -0.90925,-2.21281 -1.3912,-2.51067 -0.4892,-0.30234 -0.47996,0.50081 0.0209,1.81821 0.54606,1.43624 0.51944,3.1219 -0.068,4.30715 -0.91231,1.84063 -0.88523,1.8489 0.49402,0.15089 0.80257,-0.98806 1.2275,-2.68257 0.94429,-3.76558 z m -5.79635,-5.03588 c 0.53745,-0.52602 -0.58755,-0.42737 -2.5,0.21922 -4.47773,1.51392 -5.34694,2.36633 -1.47717,1.44863 1.65,-0.39129 3.43973,-1.14182 3.97717,-1.66785 z m -70.91957,-13.08196 c 3.21576,-2.20347 5.43483,-5.70736 7.27082,-11.48051 2.36228,-7.42805 -4.13911,-18.36877 -15.32912,-25.79627 -3.02699,-2.0092 -8.31514,-5.84939 -11.75146,-8.53375 -8.43408,-6.5885 -10.17074,-7.88309 -17.94335,-13.37581 l -6.69552,-4.73155 -0.80448,3.79889 c -0.44247,2.0894 -0.79574,10.9989 -0.78505,19.7989 0.0187,15.37341 0.13335,16.27413 2.92823,23 4.70965,11.33377 6.37099,12.9608 16.36948,16.03147 4.77557,1.46664 9.13285,2.81152 9.68285,2.98863 0.55,0.1771 3.89715,0.35753 7.43812,0.40095 5.06279,0.0621 7.11773,-0.38673 9.61948,-2.10095 z M 81.4423,226.1965 c -0.58536,-2.23843 -2.22015,-3.71944 -1.91977,-1.73918 0.20739,1.36714 1.54243,3.75476 2.0995,3.75476 0.19105,0 0.11017,-0.90701 -0.17973,-2.01558 z m -7.28567,-3.41633 c 0,-0.23754 -1.4625,-1.39973 -3.25,-2.58264 l -3.25,-2.15074 3,2.57768 c 3.07653,2.64343 3.5,2.90425 3.5,2.1557 z m -10,-6.61878 c -2.73455,-2.19443 -7.10968,-4.77408 -5.5,-3.24288 1.9251,1.83124 6.77536,5.29337 7.38486,5.27133 0.33833,-0.0122 -0.50986,-0.92503 -1.88486,-2.02845 z m 8.94624,-6.0857 c -2.46708,-6.25903 -3.73523,-27.3961 -2.15169,-35.86361 0.56571,-3.025 0.84159,-5.68927 0.61307,-5.92061 -0.22853,-0.23134 -1.42623,0.48334 -2.66156,1.58816 -4.03622,3.60981 -7.68554,4.40656 -13.24606,2.89201 -6.14468,-1.67366 -8.754,-0.4473 -9.5,4.46492 -0.34913,2.29889 -1.09523,3.37859 -2.4726,3.57813 -3.6349,0.52658 -6.07965,6.32001 -3.37289,7.99288 0.7153,0.44208 0.88306,0.27432 0.44098,-0.44098 -0.39244,-0.63498 -0.48094,-1.15451 -0.19666,-1.15451 0.28427,0 1.70683,2.03053 3.16125,4.5123 5.04998,8.61715 18.87687,19.57598 28.43992,22.54074 1.375,0.42628 2.60593,0.81373 2.73541,0.86101 0.12947,0.0473 -0.67565,-2.22542 -1.78917,-5.05044 z m -16.94624,1.8107 c 0,-0.17912 -1.2375,-1.41662 -2.75,-2.75 l -2.75,-2.42431 2.42431,2.75 c 2.26589,2.57029 3.07569,3.20859 3.07569,2.42431 z m -6.03596,-8.42431 c -0.0198,-0.4125 -1.18948,-2.1 -2.59934,-3.75 -2.52466,-2.95469 -2.29903,-2.14052 0.62585,2.25831 1.576,2.37022 2.03214,2.715 1.97349,1.49169 z m -5.96404,-9.05887 c 0,-0.44488 -0.68231,-1.68238 -1.51625,-2.75 -1.406,-1.79999 -1.43069,-1.74117 -0.33949,0.80887 1.17741,2.75149 1.85574,3.46104 1.85574,1.94113 z m 160.89335,-44.15276 c -0.70735,-2.36092 -2.1412,-4.58667 -3.31931,-5.15252 -1.75858,-0.84466 -1.84589,-0.79767 -0.57404,0.30898 0.825,0.71785 1.5,1.75517 1.5,2.30517 0,1.36535 2.85499,7.47834 3.28966,7.04367 0.19193,-0.19192 -0.21141,-2.21931 -0.89631,-4.5053 z M 56.64955,139.22353 c 0.35034,-0.56686 -0.0511,-0.7345 -0.94098,-0.39301 -1.73242,0.66479 -2.04939,1.38156 -0.61096,1.38156 0.51754,0 1.21592,-0.44485 1.55194,-0.98855 z m 4.94821,-2.54325 c 1.06762,-0.80751 1.51762,-1.45389 1,-1.4364 -0.51762,0.0175 -1.81464,0.6925 -2.88226,1.5 -1.06762,0.80751 -1.51762,1.45389 -1,1.4364 0.51762,-0.0175 1.81464,-0.6925 2.88226,-1.5 z m 73.03604,-0.56614 c 0.53745,-0.52602 -0.58755,-0.42737 -2.5,0.21922 -4.47773,1.51392 -5.34694,2.36633 -1.47717,1.44863 1.65,-0.39129 3.43973,-1.14182 3.97717,-1.66785 z m 64.87217,-0.43409 c -0.30983,-0.80738 -0.99173,-1.46797 -1.51535,-1.46797 -0.52361,0 -0.73016,-0.35899 -0.45899,-0.79775 0.27117,-0.43876 0.0796,-1.45126 -0.42567,-2.25 -0.72244,-1.14201 -0.92198,-0.98684 -0.93402,0.72632 -0.008,1.19822 0.63826,2.83214 1.43707,3.63095 0.79881,0.79881 1.13631,1.8031 0.75,2.23176 -0.38631,0.42865 -0.15953,0.46781 0.50395,0.087 0.66348,-0.38079 0.95283,-1.35294 0.64301,-2.16033 z m -125.111,-2.17523 c -1.24391,-0.23919 -3.04391,-0.23011 -4,0.0202 -0.95609,0.25029 0.0617,0.446 2.26166,0.4349 2.2,-0.0111 2.98225,-0.21589 1.73834,-0.45508 z m 57.20849,-4.39176 c 1.41985,-2.14554 2.98684,-3.90098 3.48219,-3.90098 1.26422,0 8.19989,-9.62573 10.42379,-14.46677 5.71346,-12.43712 6.91123,-22.01079 4.68262,-37.4277 -1.27457,-8.81709 -2.1489,-9.35788 -7.28957,-4.50874 -4.69403,4.42784 -11.27151,7.89141 -16.96518,8.93353 l -3.71933,0.68075 1.46933,3.51659 c 0.80812,1.93412 1.46932,5.50159 1.46932,7.92771 0,7.712 -3.86045,13.59814 -17.75802,27.07615 -6.93675,6.72734 -12.34154,12.50225 -12.01065,12.83314 1.17316,1.17316 28.86782,4.30631 31.95131,3.61471 0.92545,-0.20757 2.84434,-2.13285 4.26419,-4.27839 z M 90.15663,113.49593 c -0.825,-0.30704 -2.7375,-1.18307 -4.25,-1.94674 -1.5125,-0.76366 -2.75,-1.16629 -2.75,-0.89473 0,0.82713 5.40068,3.48012 7,3.43864 1.33333,-0.0346 1.33333,-0.10094 0,-0.59717 z m 29.9863,-14.97809 c 2.70931,-5.76382 2.68496,-13.55432 -0.0544,-17.40139 -1.99764,-2.80543 -2.35013,-2.90437 -10.34733,-2.90437 h -8.27924 l -0.65206,11.75 c -0.35864,6.4625 -0.90802,13.55 -1.22086,15.75 -0.5419,3.81092 -0.38831,4.10289 3.2494,6.1767 l 3.81819,2.17669 5.7363,-5.63183 c 3.15497,-3.09751 6.64247,-7.55962 7.75,-9.9158 z M 81.08854,97.30771 c 1.18106,-1.65865 2.06809,-4.46729 2.06809,-6.54827 0,-3.15465 -0.43637,-3.83357 -3.25,-5.05649 -1.7875,-0.77692 -3.025,-1.4612 -2.75,-1.52063 0.275,-0.0594 1.81507,-0.27961 3.42238,-0.4893 7.41535,-0.96742 8.67852,-7.27576 3.2258,-16.10987 -2.0065,-3.25078 -3.64818,-6.32724 -3.64818,-6.83657 0,-0.50933 1.29655,1.11838 2.88122,3.61715 2.47883,3.90871 5.70239,6.59807 6.70587,5.59459 0.16546,-0.16546 -0.0476,-2.86881 -0.47356,-6.00743 -0.93351,-6.87905 -3.19372,-9.73881 -7.69709,-9.73881 -7.23749,0 -8.40704,6.23552 -2.85629,15.22845 3.24417,5.25597 3.7228,7.77155 1.47866,7.77155 -0.46374,0 -1.34599,-1.4625 -1.96056,-3.25 -0.61458,-1.7875 -3.1336,-5.11371 -5.59783,-7.39157 -3.51959,-3.25341 -4.48042,-4.83112 -4.48042,-7.35699 0,-2.59282 0.32337,-3.09133 1.67005,-2.57456 2.04746,0.78568 3.2943,-1.00045 3.31464,-4.74831 0.008,-1.55178 0.73183,-3.53795 1.60757,-4.41369 1.021,-1.021 1.39921,-2.55753 1.05417,-4.28274 -0.29595,-1.47976 -0.0566,-3.17201 0.53197,-3.76054 0.7601,-0.7601 0.74441,-2.00428 -0.0542,-4.29506 -1.40045,-4.01734 -1.4582,-9.6021 -0.10792,-10.43662 1.60605,-0.9926 0.0979,-2.48992 -2.50794,-2.48992 -1.49534,0 -2.60847,-0.74002 -3.00837,-2 -0.71892,-2.26513 -2.51331,-2.58669 -4.32496,-0.77504 -0.96234,0.96234 -1.642,0.96451 -3.17023,0.0101 -1.64321,-1.0262 -2.11064,-0.90585 -3.01023,0.77504 -0.58572,1.09444 -0.71162,2.00433 -0.27976,2.02198 0.43185,0.0177 -1.68982,1.25515 -4.71482,2.75 -4.73758,2.34114 -5.45336,3.06445 -5.16354,5.2179 0.48188,3.58051 1.46296,4.21686 4.63939,3.00918 1.54084,-0.58582 3.03912,-0.82755 3.32951,-0.53716 0.85391,0.85392 -0.0568,1.25845 -4.47605,1.98824 -3.82955,0.6324 -4.20368,0.49861 -4.57406,-1.63576 -0.35036,-2.01903 -0.50626,-2.09453 -1.1863,-0.5745 -1.28594,2.87432 0.13019,5.04067 2.94349,4.50287 1.64361,-0.3142 2.48756,-0.0234 2.48756,0.85721 0,0.733 1.4625,1.75502 3.25,2.27114 3.21677,0.92881 3.22155,0.93933 0.46788,1.02859 -3.39177,0.10995 -9.45278,2.55637 -12.08608,4.87833 -1.90909,1.68336 -1.91227,1.66658 -0.19087,-1.00871 1.68891,-2.62481 1.67675,-2.81436 -0.3452,-5.38486 -1.2027,-1.52899 -2.09573,-4.12625 -2.09573,-6.09517 0,-5.31699 -1.51931,-7.2994 -5.5942,-7.2994 -2.09458,0 -3.27316,0.4056 -2.9058,1 0.33992,0.55 -0.0835,1 -0.94098,1 -0.85746,0 -1.55902,0.675 -1.55902,1.5 0,0.825 -0.45381,1.5 -1.00847,1.5 -1.16784,0 0.44195,3.14959 3.71868,7.27573 2.23341,2.81236 4.04729,9.3001 2.91636,10.43103 -0.33742,0.33743 -2.2131,-1.03356 -4.16817,-3.04663 -4.03234,-4.15197 -5.25833,-4.42682 -8.06839,-1.80885 -1.78325,1.66134 -2.09456,3.47588 -1.51896,8.85341 0.0709,0.66258 1.81645,1.52067 3.87895,1.90687 2.0625,0.3862 4.9577,1.59418 6.43379,2.68441 2.28152,1.68513 3.7804,1.90741 10,1.48301 4.02391,-0.27458 6.64121,-0.27257 5.81621,0.005 -0.825,0.27704 -2.57801,0.90286 -3.89557,1.39072 l -2.39557,0.88701 2.27115,2.41754 c 1.24914,1.32964 3.55948,2.70049 5.1341,3.04634 3.18683,0.69992 4.90467,2.47491 2.39525,2.47491 -0.88477,0 -2.93633,0.68656 -4.55902,1.52568 -2.58754,1.33807 -2.95034,2.06563 -2.95034,5.91667 0,3.89566 -0.30858,4.49384 -2.73558,5.30284 -1.66858,0.5562 -4.47381,0.54114 -7.19205,-0.0386 -4.02045,-0.85748 -4.63335,-0.73202 -6.26442,1.28226 -2.35322,2.9061 -2.28977,5.22237 0.19205,7.01116 1.1,0.79283 2,2.01034 2,2.70556 0,0.82491 2.01959,0.23776 5.81334,-1.69008 3.20849,-1.63044 8.35737,-3.25313 11.49094,-3.62142 5.91109,-0.69474 8.32852,-2.30262 7.33898,-4.88132 -0.64273,-1.67494 0.87878,-2.09511 1.85674,-0.51274 1.27214,2.05837 3.00767,0.88711 3.22334,-2.17533 0.12284,-1.74425 0.59493,-3.54295 1.0491,-3.99711 0.45416,-0.45416 0.64154,0.75211 0.4164,2.68061 -0.51609,4.42071 1.54133,7.66137 6.29666,9.91792 4.01096,1.90333 5.38483,4.10358 3.64728,5.84113 -1.71233,1.71233 -1.39604,2.52609 1.61722,4.1608 3.90551,2.11878 4.84911,1.94372 7.18191,-1.33239 z M 60.42746,27.60791 c 0.33229,-0.33229 1.19479,-0.36782 1.91667,-0.079 0.79773,0.31923 0.56078,0.55619 -0.60417,0.60417 -1.05416,0.0434 -1.64479,-0.19293 -1.3125,-0.52522 z m 1.17917,67.7941 c -1.38457,-1.18063 -6.45,-3.23838 -6.45,-2.62022 0,0.28976 1.4625,1.1625 3.25,1.93942 3.78554,1.64535 4.51256,1.80003 3.2,0.6808 z m 70.75549,-23.02083 c 10.01592,-4.73245 13.16618,-9.71279 8.70022,-13.75443 -1.60657,-1.45393 -3.76072,-1.92661 -9.25,-2.0297 -3.93564,-0.0739 -8.50571,-0.50288 -10.15571,-0.95326 -3.34264,-0.91241 -9.00757,-1.10032 -11.88419,-0.39421 -2.0069,0.49262 -19.61581,16.6712 -19.61581,18.02247 0,1.43964 4.25361,1.75168 21,1.54051 14.71808,-0.18559 17.00817,-0.44817 21.20549,-2.43138 z m 4.98904,-19.9035 c 0.72614,-0.87494 1.27851,-4.22859 1.28831,-7.82187 0.0299,-10.97906 -6.39784,-15.75191 -13.3432,-9.90778 -2.69868,2.27079 -3.13757,3.29649 -3.1249,7.30294 0.0139,4.40388 0.0843,4.52363 1.27512,2.16997 1.58241,-3.12765 4.28653,-3.7022 6.78454,-1.44152 2.49551,2.2584 2.47789,7.21588 -0.0352,9.89089 l -1.96076,2.08714 3.92245,-0.37407 c 2.15736,-0.20573 4.49448,-1.0633 5.1936,-1.9057 z m -19.19453,-9.39641 c 0,-5.69456 -2.86082,-10.86919 -6.00908,-10.86919 -2.37242,0 -2.64339,0.47913 -3.49711,6.18346 -0.64632,4.31849 -0.54863,4.64364 1.25355,4.17236 2.79003,-0.72961 5.5456,2.3408 4.79276,5.34036 -0.54462,2.16991 -0.4031,2.30086 1.42767,1.32106 1.63194,-0.87339 2.03221,-2.08433 2.03221,-6.14805 z m -5.25014,1.54734 c -0.95295,-0.95296 -2.86349,0.5906 -2.1533,1.7397 0.42212,0.683 0.98146,0.66575 1.69964,-0.0524 0.58876,-0.58876 0.79291,-1.34803 0.45366,-1.68727 z m 16.35394,0.28727 c -1.28349,-1.28349 -2.58505,-0.2915 -1.63484,1.24598 0.36808,0.59556 1.12735,0.79971 1.68727,0.45366 0.683,-0.42212 0.66575,-0.98146 -0.0524,-1.69964 z m 11.8962,-10.04881 c 0,-0.18976 -1.0125,-1.20226 -2.25,-2.25 l -2.25,-1.90499 1.90499,2.25 c 1.79022,2.11444 2.59501,2.70524 2.59501,1.90499 z m 17,-7.95499 c 0,-1.57749 -2.00622,-3.7114 -3.45,-3.66959 -0.5775,0.0167 -0.2625,0.48908 0.7,1.04969 0.9625,0.5606 1.75,1.50202 1.75,2.09204 0,0.6495 -0.69045,0.53126 -1.75,-0.2997 -1.58606,-1.24387 -1.62143,-1.2085 -0.37756,0.37756 1.61912,2.06453 3.12756,2.28157 3.12756,0.45 z"
       id="path3083" />
    <path
       style="fill:#626262"
       d="m 131.65886,271.63668 c -1.64877,-0.8597 -3.79788,-2.28717 -4.7758,-3.17217 -1.57756,-1.42768 -2.524,-1.46082 -8.39469,-0.29391 -6.51486,1.29495 -6.64492,1.27846 -8.45197,-1.07167 -1.90978,-2.48372 -2.37679,-5.61215 -1.11446,-7.46554 1.01225,-1.4862 9.88424,-6.0072 14.71877,-7.50039 3.38786,-1.04638 3.68716,-1.34649 2,-2.00544 -1.09125,-0.4262 -3.03629,-0.80654 -4.32234,-0.84519 -1.28604,-0.0387 -5.25493,-1.42029 -8.81977,-3.07029 -3.56483,-1.65 -6.71135,-3 -6.99227,-3 -0.28092,0 -2.83703,-1.52065 -5.68023,-3.37923 -2.84321,-1.85857 -6.96037,-3.69836 -9.14924,-4.08842 -3.53275,-0.62953 -11.38958,-5.22111 -29.57248,-17.28235 -2.69475,-1.7875 -5.25248,-3.25 -5.68386,-3.25 -1.43734,0 -6.22395,-5.0217 -7.89429,-8.282 -0.90677,-1.7699 -1.97054,-3.443 -2.36395,-3.718 -1.75556,-1.22719 -9.00565,-15.9307 -9.00565,-18.26388 0,-2.85472 1.93215,-5.26242 5.00592,-6.238 1.2166,-0.38613 1.99408,-1.51339 1.99408,-2.89119 0,-4.07063 3.93691,-6.60693 10.25543,-6.60693 3.0946,0 5.90465,0.45 6.24457,1 1.12806,1.82524 2.96568,1.04256 7.43401,-3.1663 4.03085,-3.79678 4.49397,-3.99634 5.22163,-2.25 0.62225,1.49337 0.74836,1.27125 0.57142,-1.00644 -0.17563,-2.26066 -0.79338,-3.01529 -2.72706,-3.33129 -5.81796,-0.95077 -9.07119,-0.52974 -11.24926,1.45585 -4.59788,4.19155 -9.14951,4.66425 -16.75074,1.7396 -1.91672,-0.73747 -5.0187,-6.85053 -4.93863,-9.73252 0.19629,-7.06478 8.35508,-16.63582 18.02368,-21.1435 4.16959,-1.94394 4.49348,-2.34284 3.57452,-4.40231 -0.63691,-1.42736 -3.81105,-3.56064 -8.58505,-5.76985 -6.01399,-2.78303 -8.70765,-3.47677 -13.07452,-3.36731 -8.52263,0.21364 -8.74212,0.15875 -11.96552,-2.99223 -3.23151,-3.1589 -3.97725,-7.40361 -1.96219,-11.16877 0.88781,-1.65889 0.37996,-3.06693 -2.95187,-8.18426 C 10.16157,81.35646 4.73123,63.58373 2.95865,40.21208 2.3538,32.23708 2.183,22.2918 2.5791,18.11145 l 0.72017,-7.60062 9.67868,-2.10125 c 20.49502,-4.4495 37.41745,-5.65441 65.24634,-4.6457 11.93173,0.43249 20.52185,1.1687 21.41308,1.83521 1.21593,0.90932 1.61177,5.73801 2.16321,26.38751 l 0.67494,25.27453 2.30189,-2.16251 c 1.76041,-1.65383 2.07575,-2.58506 1.34055,-3.95879 -2.09968,-3.92329 -0.11624,-19.77564 3.55687,-28.42775 2.08216,-4.90457 8.15953,-11.16486 13.23447,-13.63279 3.93558,-1.91387 6.37174,-2.30993 14.24733,-2.31629 10.20674,-0.008 14.09076,1.28879 20.82302,6.95362 3.97617,3.34572 8.95071,12.05411 10.07281,17.63338 3.03892,15.10991 6.6577,30.45578 8.81053,37.36208 1.37156,4.4 2.66843,8.89418 2.88193,9.98707 1.08168,5.53699 9.7926,24.5832 17.67019,38.63542 4.63016,8.25939 10.01244,21.42497 14.25841,34.87751 3.3932,10.75069 4.8754,25.91473 4.10252,41.97182 -0.56702,11.78013 -0.80573,12.88932 -4.30417,20 -4.57856,9.30606 -8.15383,14.3422 -13.32293,18.76676 -4.59169,3.93032 -5.05798,6.45484 -1.49231,8.07947 1.375,0.62649 2.53443,1.93622 2.57651,2.91051 0.0421,0.97429 0.23534,2.61393 0.42945,3.64365 0.41912,2.22323 -4.28764,7.23439 -10.00596,10.65308 -4.56551,2.72949 -5.77188,4.02525 -8.4877,9.11662 -1.63468,3.06453 -2.74513,3.83441 -7.0045,4.85622 -6.2971,1.51065 -10.96927,0.69369 -14.44274,-2.52541 -2.80324,-2.59796 -6.30981,-2.60157 -9.56506,-0.01 -1.5039,1.19734 -10.68696,3.54252 -13.82629,3.53097 -0.92054,-0.003 -3.02271,-0.70955 -4.67148,-1.56924 z m 16.84194,-4.4246 c 3.49224,-1.65 6.92153,-3 7.62066,-3 0.69913,0 2.80871,1.35 4.68795,3 2.84209,2.49538 4.27553,3 8.52199,3 4.66236,0 5.37493,-0.32144 8.2152,-3.70587 5.0478,-6.01489 11.76276,-12.11475 14.65534,-13.3129 5.08623,-2.10678 5.73528,-8.92274 1.08658,-11.41065 -1.60471,-0.85881 -3.67598,-1.00532 -6.49406,-0.45935 -2.27581,0.44092 -11.94336,0.82127 -21.48346,0.84522 -15.12226,0.038 -17.68587,0.27788 -20,1.87166 -4.81358,3.31519 -15.60205,8.88894 -18.58238,9.60039 -4.79891,1.14557 -15.28728,6.38717 -15.88204,7.9371 -0.30392,0.792 0.037,2.2463 0.7576,3.23178 1.15574,1.58057 1.78017,1.65097 5.29733,0.5972 6.02107,-1.80396 8.16774,-1.47849 11.9079,1.80542 2.81466,2.4713 4.29138,3 8.37935,3 3.43626,0 6.91539,-0.92268 11.31204,-3 z m -61.34417,-36.5 c -0.68469,-0.825 -1.69489,-1.5 -2.24489,-1.5 -0.55783,0 -0.44954,0.66326 0.24489,1.5 0.68469,0.825 1.69489,1.5 2.24489,1.5 0.55783,0 0.44954,-0.66326 -0.24489,-1.5 z m 32.5576,-2.6799 c 3.21576,-2.20347 5.43483,-5.70736 7.27082,-11.48051 2.36228,-7.42805 -4.13911,-18.36877 -15.32912,-25.79627 -3.02699,-2.0092 -8.31514,-5.84939 -11.75146,-8.53375 -8.43408,-6.5885 -10.17074,-7.88309 -17.94335,-13.37581 l -6.69552,-4.73155 -0.80448,3.79889 c -0.44247,2.0894 -0.79574,10.9989 -0.78505,19.7989 0.0187,15.37341 0.13335,16.27413 2.92823,23 4.70965,11.33377 6.37099,12.9608 16.36948,16.03147 4.77557,1.46664 9.13285,2.81152 9.68285,2.98863 0.55,0.1771 3.89715,0.35753 7.43812,0.40095 5.06279,0.0621 7.11773,-0.38673 9.61948,-2.10095 z m -38.84269,-3.62796 c -2.19168,-2.48846 -7.55389,-13.5351 -8.17303,-16.83717 -2.38595,-12.72516 -2.73181,-16.68016 -2.20765,-25.24461 0.32349,-5.2857 0.89226,-10.96036 1.26393,-12.61036 l 0.67576,-3 -2.38696,2.13303 c -5.15698,4.60836 -8.25737,5.48762 -14.07723,3.99226 -6.72331,-1.7275 -9.21204,-0.88962 -9.62364,3.23997 -0.22921,2.29969 -1.10221,3.55712 -3.23551,4.6603 -1.60688,0.83095 -3.17509,2.52078 -3.4849,3.75517 -0.57012,2.27152 2.73505,11.10726 4.58181,12.24862 0.5448,0.3367 2.06297,2.71784 3.37372,5.29142 3.21405,6.31061 6.16534,9.43136 11.88473,12.56712 2.64327,1.44923 6.01827,3.50169 7.5,4.56102 10.25885,7.3344 18.48037,10.43364 13.90897,5.24323 z m 124.17844,-74.15377 c -0.70735,-2.36092 -2.1412,-4.58667 -3.31931,-5.15252 -1.75858,-0.84466 -1.84589,-0.79767 -0.57404,0.30898 0.825,0.71785 1.5,1.75517 1.5,2.30517 0,1.36535 2.85499,7.47834 3.28966,7.04367 0.19193,-0.19192 -0.21141,-2.21931 -0.89631,-4.5053 z M 56.64955,139.22353 c 0.35034,-0.56686 -0.0511,-0.7345 -0.94098,-0.39301 -1.73242,0.66479 -2.04939,1.38156 -0.61096,1.38156 0.51754,0 1.21592,-0.44485 1.55194,-0.98855 z m 4.94821,-2.54325 c 1.06762,-0.80751 1.51762,-1.45389 1,-1.4364 -0.51762,0.0175 -1.81464,0.6925 -2.88226,1.5 -1.06762,0.80751 -1.51762,1.45389 -1,1.4364 0.51762,-0.0175 1.81464,-0.6925 2.88226,-1.5 z m 73.03604,-0.56614 c 0.53745,-0.52602 -0.58755,-0.42737 -2.5,0.21922 -4.47773,1.51392 -5.34694,2.36633 -1.47717,1.44863 1.65,-0.39129 3.43973,-1.14182 3.97717,-1.66785 z m 64.87217,-0.43409 c -0.30983,-0.80738 -0.99173,-1.46797 -1.51535,-1.46797 -0.52361,0 -0.73016,-0.35899 -0.45899,-0.79775 0.27117,-0.43876 0.0796,-1.45126 -0.42567,-2.25 -0.72244,-1.14201 -0.92198,-0.98684 -0.93402,0.72632 -0.008,1.19822 0.63826,2.83214 1.43707,3.63095 0.79881,0.79881 1.13631,1.8031 0.75,2.23176 -0.38631,0.42865 -0.15953,0.46781 0.50395,0.087 0.66348,-0.38079 0.95283,-1.35294 0.64301,-2.16033 z m -125.111,-2.17523 c -1.24391,-0.23919 -3.04391,-0.23011 -4,0.0202 -0.95609,0.25029 0.0617,0.446 2.26166,0.4349 2.2,-0.0111 2.98225,-0.21589 1.73834,-0.45508 z m 57.20849,-4.39176 c 1.41985,-2.14554 2.98684,-3.90098 3.48219,-3.90098 1.26422,0 8.19989,-9.62573 10.42379,-14.46677 5.71346,-12.43712 6.91123,-22.01079 4.68262,-37.4277 -1.27457,-8.81709 -2.1489,-9.35788 -7.28957,-4.50874 -4.69403,4.42784 -11.27151,7.89141 -16.96518,8.93353 l -3.71933,0.68075 1.46933,3.51659 c 0.80812,1.93412 1.46932,5.50159 1.46932,7.92771 0,7.712 -3.86045,13.59814 -17.75802,27.07615 -6.93675,6.72734 -12.34154,12.50225 -12.01065,12.83314 1.17316,1.17316 28.86782,4.30631 31.95131,3.61471 0.92545,-0.20757 2.84434,-2.13285 4.26419,-4.27839 z M 90.15663,113.49593 c -0.825,-0.30704 -2.7375,-1.18307 -4.25,-1.94674 -1.5125,-0.76366 -2.75,-1.16629 -2.75,-0.89473 0,0.82713 5.40068,3.48012 7,3.43864 1.33333,-0.0346 1.33333,-0.10094 0,-0.59717 z m 29.9863,-14.97809 c 2.70931,-5.76382 2.68496,-13.55432 -0.0544,-17.40139 -1.99764,-2.80543 -2.35013,-2.90437 -10.34733,-2.90437 h -8.27924 l -0.65206,11.75 c -0.35864,6.4625 -0.90802,13.55 -1.22086,15.75 -0.5419,3.81092 -0.38831,4.10289 3.2494,6.1767 l 3.81819,2.17669 5.7363,-5.63183 c 3.15497,-3.09751 6.64247,-7.55962 7.75,-9.9158 z M 81.08854,97.30771 c 1.18106,-1.65865 2.06809,-4.46729 2.06809,-6.54827 0,-3.15465 -0.43637,-3.83357 -3.25,-5.05649 -1.7875,-0.77692 -3.025,-1.4612 -2.75,-1.52063 0.275,-0.0594 1.81507,-0.27961 3.42238,-0.4893 7.41535,-0.96742 8.67852,-7.27576 3.2258,-16.10987 -2.0065,-3.25078 -3.64818,-6.32724 -3.64818,-6.83657 0,-0.50933 1.29655,1.11838 2.88122,3.61715 2.47883,3.90871 5.70239,6.59807 6.70587,5.59459 0.16546,-0.16546 -0.0476,-2.86881 -0.47356,-6.00743 -0.93351,-6.87905 -3.19372,-9.73881 -7.69709,-9.73881 -7.23749,0 -8.40704,6.23552 -2.85629,15.22845 3.24417,5.25597 3.7228,7.77155 1.47866,7.77155 -0.46374,0 -1.34599,-1.4625 -1.96056,-3.25 -0.61458,-1.7875 -3.1336,-5.11371 -5.59783,-7.39157 -3.51959,-3.25341 -4.48042,-4.83112 -4.48042,-7.35699 0,-2.59282 0.32337,-3.09133 1.67005,-2.57456 2.04746,0.78568 3.2943,-1.00045 3.31464,-4.74831 0.008,-1.55178 0.73183,-3.53795 1.60757,-4.41369 1.021,-1.021 1.39921,-2.55753 1.05417,-4.28274 -0.29595,-1.47976 -0.0566,-3.17201 0.53197,-3.76054 0.7601,-0.7601 0.74441,-2.00428 -0.0542,-4.29506 -1.40045,-4.01734 -1.4582,-9.6021 -0.10792,-10.43662 1.60605,-0.9926 0.0979,-2.48992 -2.50794,-2.48992 -1.49534,0 -2.60847,-0.74002 -3.00837,-2 -0.71892,-2.26513 -2.51331,-2.58669 -4.32496,-0.77504 -0.96234,0.96234 -1.642,0.96451 -3.17023,0.0101 -1.64321,-1.0262 -2.11064,-0.90585 -3.01023,0.77504 -0.58572,1.09444 -0.71162,2.00433 -0.27976,2.02198 0.43185,0.0177 -1.68982,1.25515 -4.71482,2.75 -4.73758,2.34114 -5.45336,3.06445 -5.16354,5.2179 0.48188,3.58051 1.46296,4.21686 4.63939,3.00918 1.54084,-0.58582 3.03912,-0.82755 3.32951,-0.53716 0.85391,0.85392 -0.0568,1.25845 -4.47605,1.98824 -3.82955,0.6324 -4.20368,0.49861 -4.57406,-1.63576 -0.35036,-2.01903 -0.50626,-2.09453 -1.1863,-0.5745 -1.28594,2.87432 0.13019,5.04067 2.94349,4.50287 1.64361,-0.3142 2.48756,-0.0234 2.48756,0.85721 0,0.733 1.4625,1.75502 3.25,2.27114 3.21677,0.92881 3.22155,0.93933 0.46788,1.02859 -3.39177,0.10995 -9.45278,2.55637 -12.08608,4.87833 -1.90909,1.68336 -1.91227,1.66658 -0.19087,-1.00871 1.68891,-2.62481 1.67675,-2.81436 -0.3452,-5.38486 -1.2027,-1.52899 -2.09573,-4.12625 -2.09573,-6.09517 0,-5.31699 -1.51931,-7.2994 -5.5942,-7.2994 -2.09458,0 -3.27316,0.4056 -2.9058,1 0.33992,0.55 -0.0835,1 -0.94098,1 -0.85746,0 -1.55902,0.675 -1.55902,1.5 0,0.825 -0.45381,1.5 -1.00847,1.5 -1.16784,0 0.44195,3.14959 3.71868,7.27573 2.23341,2.81236 4.04729,9.3001 2.91636,10.43103 -0.33742,0.33743 -2.2131,-1.03356 -4.16817,-3.04663 -4.03234,-4.15197 -5.25833,-4.42682 -8.06839,-1.80885 -1.78325,1.66134 -2.09456,3.47588 -1.51896,8.85341 0.0709,0.66258 1.81645,1.52067 3.87895,1.90687 2.0625,0.3862 4.9577,1.59418 6.43379,2.68441 2.28152,1.68513 3.7804,1.90741 10,1.48301 4.02391,-0.27458 6.64121,-0.27257 5.81621,0.005 -0.825,0.27704 -2.57801,0.90286 -3.89557,1.39072 l -2.39557,0.88701 2.27115,2.41754 c 1.24914,1.32964 3.55948,2.70049 5.1341,3.04634 3.18683,0.69992 4.90467,2.47491 2.39525,2.47491 -0.88477,0 -2.93633,0.68656 -4.55902,1.52568 -2.58754,1.33807 -2.95034,2.06563 -2.95034,5.91667 0,3.89566 -0.30858,4.49384 -2.73558,5.30284 -1.66858,0.5562 -4.47381,0.54114 -7.19205,-0.0386 -4.02045,-0.85748 -4.63335,-0.73202 -6.26442,1.28226 -2.35322,2.9061 -2.28977,5.22237 0.19205,7.01116 1.1,0.79283 2,2.01034 2,2.70556 0,0.82491 2.01959,0.23776 5.81334,-1.69008 3.20849,-1.63044 8.35737,-3.25313 11.49094,-3.62142 5.91109,-0.69474 8.32852,-2.30262 7.33898,-4.88132 -0.64273,-1.67494 0.87878,-2.09511 1.85674,-0.51274 1.27214,2.05837 3.00767,0.88711 3.22334,-2.17533 0.12284,-1.74425 0.59493,-3.54295 1.0491,-3.99711 0.45416,-0.45416 0.64154,0.75211 0.4164,2.68061 -0.51609,4.42071 1.54133,7.66137 6.29666,9.91792 4.01096,1.90333 5.38483,4.10358 3.64728,5.84113 -1.71233,1.71233 -1.39604,2.52609 1.61722,4.1608 3.90551,2.11878 4.84911,1.94372 7.18191,-1.33239 z M 60.42746,27.60791 c 0.33229,-0.33229 1.19479,-0.36782 1.91667,-0.079 0.79773,0.31923 0.56078,0.55619 -0.60417,0.60417 -1.05416,0.0434 -1.64479,-0.19293 -1.3125,-0.52522 z m 1.17917,67.7941 c -1.38457,-1.18063 -6.45,-3.23838 -6.45,-2.62022 0,0.28976 1.4625,1.1625 3.25,1.93942 3.78554,1.64535 4.51256,1.80003 3.2,0.6808 z m 69.21102,-22.3529 c 5.1731,-1.91631 13.33898,-8.01563 13.33898,-9.96325 0,-0.39618 -1.16441,-2.10415 -2.58758,-3.7955 -2.42993,-2.8878 -2.90213,-3.04057 -7.75,-2.50739 -3.26966,0.3596 -6.90738,0.0272 -9.92173,-0.90649 -2.61762,-0.81085 -7.11762,-1.39091 -10,-1.28903 -5.1473,0.18193 -5.40553,0.34293 -14.49069,9.03445 -5.0875,4.86707 -9.25,9.20963 -9.25,9.65015 0,1.31808 3.73541,1.6608 19.66102,1.80385 13.28543,0.11933 15.88336,-0.1314 21,-2.02679 z m 6.53351,-20.57143 c 0.72614,-0.87494 1.27851,-4.22859 1.28831,-7.82187 0.0299,-10.97906 -6.39784,-15.75191 -13.3432,-9.90778 -2.69868,2.27079 -3.13757,3.29649 -3.1249,7.30294 0.0139,4.40388 0.0843,4.52363 1.27512,2.16997 1.58241,-3.12765 4.28653,-3.7022 6.78454,-1.44152 2.49551,2.2584 2.47789,7.21588 -0.0352,9.89089 l -1.96076,2.08714 3.92245,-0.37407 c 2.15736,-0.20573 4.49448,-1.0633 5.1936,-1.9057 z m -19.19453,-9.39641 c 0,-5.69456 -2.86082,-10.86919 -6.00908,-10.86919 -2.37242,0 -2.64339,0.47913 -3.49711,6.18346 -0.64632,4.31849 -0.54863,4.64364 1.25355,4.17236 2.79003,-0.72961 5.5456,2.3408 4.79276,5.34036 -0.54462,2.16991 -0.4031,2.30086 1.42767,1.32106 1.63194,-0.87339 2.03221,-2.08433 2.03221,-6.14805 z m -5.25014,1.54734 c -0.95295,-0.95296 -2.86349,0.5906 -2.1533,1.7397 0.42212,0.683 0.98146,0.66575 1.69964,-0.0524 0.58876,-0.58876 0.79291,-1.34803 0.45366,-1.68727 z m 16.35394,0.28727 c -1.28349,-1.28349 -2.58505,-0.2915 -1.63484,1.24598 0.36808,0.59556 1.12735,0.79971 1.68727,0.45366 0.683,-0.42212 0.66575,-0.98146 -0.0524,-1.69964 z m 11.8962,-10.04881 c 0,-0.18976 -1.0125,-1.20226 -2.25,-2.25 l -2.25,-1.90499 1.90499,2.25 c 1.79022,2.11444 2.59501,2.70524 2.59501,1.90499 z m 17,-7.95499 c 0,-1.57749 -2.00622,-3.7114 -3.45,-3.66959 -0.5775,0.0167 -0.2625,0.48908 0.7,1.04969 0.9625,0.5606 1.75,1.50202 1.75,2.09204 0,0.6495 -0.69045,0.53126 -1.75,-0.2997 -1.58606,-1.24387 -1.62143,-1.2085 -0.37756,0.37756 1.61912,2.06453 3.12756,2.28157 3.12756,0.45 z"
       id="path3081" />
    <path
       style="fill:#d23013"
       d="m 131.65886,271.67872 c -1.64877,-0.88282 -3.80453,-2.33523 -4.79057,-3.22758 -1.57745,-1.42757 -2.52278,-1.47168 -7.87012,-0.3672 -5.79726,1.1974 -6.18711,1.15212 -8.45944,-0.98262 -5.15058,-4.83872 -2.21934,-8.86598 9.79444,-13.4567 7.48656,-2.86078 7.53528,-3.5981 0.32346,-4.89592 -4.32576,-0.77845 -19.5993,-7.71834 -23.23828,-10.55886 -1.23105,-0.96094 -4.26317,-2.05081 -6.73805,-2.42194 -2.47488,-0.37113 -5.06765,-1.21277 -5.76172,-1.87031 -0.69407,-0.65754 -3.96195,-2.96019 -7.26195,-5.117 -3.3,-2.15681 -7.8,-5.10977 -10,-6.56214 -2.2,-1.45237 -6.9971,-4.36782 -10.66023,-6.47878 -3.66312,-2.11096 -7.13543,-4.78075 -7.71623,-5.93285 -1.21259,-2.40532 -5.6082,-9.67559 -8.81372,-14.57774 -2.38973,-3.65457 -3.80757,-9.89056 -2.89317,-12.72483 0.31801,-0.98569 1.95837,-2.57539 3.64525,-3.53266 2.03994,-1.15763 2.96173,-2.37734 2.75257,-3.64219 -0.17296,-1.04594 0.54277,-2.85022 1.59052,-4.00951 1.51959,-1.68139 3.07553,-2.10781 7.69098,-2.10781 3.1823,0 6.06411,0.45 6.40403,1 1.1395,1.84375 3.21721,1.02745 7.6136,-2.99125 3.79189,-3.46612 4.46334,-3.76216 5.10344,-2.25 0.50931,1.20318 0.66691,0.83462 0.51002,-1.19269 -0.17989,-2.32443 -0.85028,-3.10631 -3.22706,-3.76368 -3.90522,-1.08012 -10.19139,-0.049 -10.89604,1.78729 -1.23408,3.21596 -9.33044,4.58432 -14.24728,2.40792 -5.65467,-2.503 -7.93342,-12.3144 -4.39546,-18.92512 1.67304,-3.12611 11.24094,-10.76943 15.72919,-12.56527 3.9533,-1.5818 4.12552,-1.81708 3.05302,-4.17097 -1.86138,-4.08529 -12.62353,-8.54073 -22.4889,-9.31022 -7.26962,-0.56703 -8.60105,-0.98381 -11.25,-3.52167 -3.18799,-3.05429 -3.89835,-6.96571 -1.93224,-10.63941 0.88781,-1.65889 0.37996,-3.06693 -2.95187,-8.18426 C 10.16157,81.35646 4.73123,63.58373 2.95865,40.21208 2.3538,32.23708 2.183,22.2918 2.5791,18.11145 l 0.72017,-7.60062 9.67868,-2.10125 c 20.49502,-4.4495 37.41745,-5.65441 65.24634,-4.6457 11.93173,0.43249 20.52185,1.1687 21.41308,1.83521 1.21593,0.90932 1.61177,5.73801 2.16321,26.38751 l 0.67494,25.27453 2.30189,-2.16251 c 1.76041,-1.65383 2.07575,-2.58506 1.34055,-3.95879 -2.53963,-4.74535 1.17954,-24.56551 6.1051,-32.53524 4.30709,-6.96901 11.72122,-10.77191 23.54968,-12.07923 6.81773,-0.75352 16.67926,2.48743 21.12031,6.9411 5.46061,5.47612 8.44825,9.65169 9.31751,13.02228 0.4572,1.77283 1.7701,6.59834 2.91754,10.72334 1.14745,4.125 2.48367,10.2725 2.96939,13.66112 0.86435,6.03011 4.50491,19.38228 7.7268,28.33888 0.89031,2.475 2.49268,6.975 3.56083,10 2.33186,6.60382 7.2438,16.65158 13.4174,27.44634 2.49951,4.37048 4.71166,8.814 4.91589,9.87448 0.20423,1.06048 1.01801,2.91511 1.80839,4.12139 2.18024,3.32745 9.57285,25.78687 10.11044,30.7164 0.2604,2.38776 0.93118,7.04139 1.49063,10.34139 1.67954,9.90706 1.15913,25.31914 -1.23247,36.5 -1.07898,5.04429 -7.63424,15.48849 -13.56124,21.60652 -6.73624,6.95334 -7.82155,9.73691 -4.23967,10.87376 2.12794,0.67538 3.38172,6.54896 2.11125,9.89054 -0.73442,1.93169 -7.90762,7.62918 -9.6052,7.62918 -1.10305,0 -8.3901,8.48325 -8.41718,9.79889 -0.0342,1.66166 -7.66385,5.15042 -11.32639,5.17915 -3.16773,0.0248 -7.69119,-2.05716 -9.68251,-4.45656 -1.52214,-1.83407 -4.79242,-1.40433 -11.63561,1.529 -6.47196,2.77421 -12.36257,3.29953 -15.87999,1.41616 z m 15.84006,-4.04826 c 5.55283,-2.77325 10.82491,-3.12677 12.71243,-0.85244 2.52161,3.03835 6.93966,4.61081 11.01854,3.92168 3.13249,-0.52923 4.68971,-1.66535 7.98067,-5.82257 4.28336,-5.41084 10.90035,-11.19837 13.8871,-12.14633 2.29686,-0.729 3.86541,-4.41315 3.13056,-7.35292 -0.87856,-3.51467 -4.40912,-4.96006 -9.90352,-4.05444 -2.56744,0.42318 -12.65557,0.79624 -22.41807,0.82903 -9.7625,0.0328 -17.75,0.43357 -17.75,0.89063 0,0.45706 -1.2375,1.46487 -2.75,2.23957 -1.5125,0.7747 -4.9073,2.65074 -7.54401,4.16898 -2.6367,1.51824 -5.17922,2.76043 -5.65003,2.76043 -2.58006,0 -18.25939,7.5116 -19.14899,9.17383 -1.93074,3.60762 0.38198,4.76942 8.19097,4.11474 6.14601,-0.51526 7.21894,-0.33951 9.18118,1.50393 4.99278,4.69046 10.55883,4.87321 19.06317,0.62588 z M 87.65663,231.21208 c -0.99549,-1.1 -2.46508,-2 -3.26577,-2 -0.96763,0 -0.66417,0.6595 0.90499,1.96673 3.08634,2.57118 4.67786,2.59361 2.36078,0.0333 z m 31.43491,-2.46634 c 3.35713,-1.73604 8.1402,-9.45978 8.77494,-14.16985 0.93059,-6.90542 -7.66853,-19.72213 -16.16133,-24.08796 -3.96908,-2.04035 -14.54852,-10.16574 -14.54852,-11.17378 0,-0.42957 -1.0125,-1.25001 -2.25,-1.82319 -1.2375,-0.57318 -6.06993,-3.78227 -10.73873,-7.13132 -7.21621,-5.17636 -8.58478,-5.82951 -9.1295,-4.357 -1.51734,4.10178 -3.12294,20.78425 -2.59601,26.97314 0.68668,8.06522 4.88163,21.55188 8.38339,26.95241 2.44708,3.77395 8.2296,7.26562 12.08771,7.29895 0.95873,0.008 3.54314,0.66353 5.74314,1.4561 5.30072,1.90966 16.79493,1.94481 20.43491,0.0625 z m -38.22,-4.34152 c -3.29855,-3.74521 -7.53881,-14.18762 -9.19983,-22.65625 -1.73681,-8.85508 -1.69968,-24.21149 0.0775,-32.03589 l 0.68138,-3 -2.38696,2.12584 c -1.31283,1.16922 -3.96196,2.8338 -5.88696,3.69907 -3.02885,1.36144 -4.17307,1.39596 -8.5,0.25642 -6.34691,-1.67153 -8.85306,-0.79596 -9.5,3.31901 -0.3282,2.08757 -1.35329,3.60326 -2.98339,4.41124 -4.00912,1.98717 -4.61441,5.45718 -1.87337,10.73975 6.90386,13.30526 11.83867,19.96551 16.67352,22.50332 2.37421,1.24623 5.97421,3.39501 8,4.77506 12.24801,8.34386 19.64842,11.25593 14.89815,5.86243 z M 43.79757,154.29575 c -0.11469,-4.37409 -1.64094,-4.55204 -1.64094,-0.19132 0,2.3259 0.66734,4.10765 1.53848,4.10765 0.11283,0 0.15894,-1.76235 0.10246,-3.91633 z m 160.94508,-5.33367 c -2.06275,-6.61971 -4.21639,-12.05255 -7.43273,-18.75 -1.06649,-2.22078 -1.14324,-1.96227 -0.68721,2.31464 0.63271,5.93375 8.18663,23.68536 10.07895,23.68536 0.16507,0 -0.71648,-3.2625 -1.95901,-7.25 z M 56.4478,139.58758 c 1.16712,-1.16713 14.19615,-5.29038 16.85184,-5.33304 1.45366,-0.0233 2.86874,-0.6307 3.14463,-1.34966 1.15122,-3.00003 -18.43488,2.36983 -21.31898,5.84496 -1.15779,1.39505 0.0195,2.14078 1.32251,0.83774 z m 78.88564,-4.32442 c 0.89073,-2.40787 0.88023,-2.41268 -1.18535,-0.54335 -1.2636,1.14354 -3.44368,1.84748 -5.53775,1.78812 -1.89954,-0.0538 -3.45371,0.3425 -3.45371,0.88076 0,0.54607 2.05061,0.82952 4.63906,0.64125 3.84348,-0.27955 4.79319,-0.75404 5.53775,-2.76678 z m -1.69354,-7.84821 c 7.67431,-8.5422 10.23062,-12.48828 14.01968,-21.64167 3.42505,-8.27405 3.49705,-8.73513 3.49705,-22.39381 0,-11.81822 -0.26832,-14.27718 -1.75876,-16.11779 -2.06501,-2.55019 -4.37336,-2.02309 -6.7016,1.53025 -2.25556,3.44242 -12.60759,8.42015 -17.51112,8.42015 -2.21569,0 -4.02852,0.45 -4.02852,1 0,0.55 0.40122,1 0.89159,1 1.33688,0 2.3249,4.79229 2.31727,11.23973 -0.009,7.90886 -2.66462,12.03811 -15.86312,24.66892 -12.76512,12.21608 -14.18043,13.95745 -12.2924,15.12431 2.72455,1.68387 26.00795,4.08689 30.44666,3.14233 1.1,-0.23408 4.24247,-2.92167 6.98327,-5.97242 z m 60.87836,-2.70287 c -0.31659,-0.825 -0.75246,-1.5 -0.96862,-1.5 -0.21615,0 -0.39301,0.675 -0.39301,1.5 0,0.825 0.43588,1.5 0.96862,1.5 0.53273,0 0.70959,-0.675 0.39301,-1.5 z M 96.65663,114.8378 c -1.65,-0.7128 -4.40366,-1.57217 -6.11924,-1.90971 -1.71558,-0.33754 -5.54058,-2.03154 -8.5,-3.76444 l -5.38076,-3.15073 2.86748,3.02692 c 2.94897,3.11295 5.20397,4.21505 12.13252,5.92964 6.04426,1.49575 8.61075,1.42816 5,-0.13168 z m 16.18144,-6.37572 c 7.07667,-7.32971 9.2684,-12.01302 9.2966,-19.86514 0.0169,-4.69518 -0.4593,-6.72697 -2.05062,-8.75 -1.94074,-2.46725 -2.599,-2.63486 -10.34802,-2.63486 h -8.27545 l -0.64568,12.25 c -0.35512,6.7375 -0.91726,14.05 -1.24919,16.25 -0.57695,3.82401 -0.43423,4.09798 3.24371,6.22703 2.11597,1.22487 3.98895,2.23737 4.16218,2.25 0.17323,0.0126 2.81314,-2.56453 5.86647,-5.72703 z M 81.08854,97.30771 c 1.18106,-1.65865 2.06809,-4.46729 2.06809,-6.54827 0,-3.15465 -0.43637,-3.83357 -3.25,-5.05649 -1.7875,-0.77692 -3.025,-1.4612 -2.75,-1.52063 0.275,-0.0594 1.81507,-0.27961 3.42238,-0.4893 7.41535,-0.96742 8.67852,-7.27576 3.2258,-16.10987 -2.0065,-3.25078 -3.64818,-6.32724 -3.64818,-6.83657 0,-0.50933 1.29655,1.11838 2.88122,3.61715 2.47883,3.90871 5.70239,6.59807 6.70587,5.59459 0.16546,-0.16546 -0.0476,-2.86881 -0.47356,-6.00743 -0.93351,-6.87905 -3.19372,-9.73881 -7.69709,-9.73881 -7.23749,0 -8.40704,6.23552 -2.85629,15.22845 3.24417,5.25597 3.7228,7.77155 1.47866,7.77155 -0.46374,0 -1.34599,-1.4625 -1.96056,-3.25 -0.61458,-1.7875 -3.1336,-5.11371 -5.59783,-7.39157 -3.51959,-3.25341 -4.48042,-4.83112 -4.48042,-7.35699 0,-2.59282 0.32337,-3.09133 1.67005,-2.57456 2.04746,0.78568 3.2943,-1.00045 3.31464,-4.74831 0.008,-1.55178 0.73183,-3.53795 1.60757,-4.41369 1.021,-1.021 1.39921,-2.55753 1.05417,-4.28274 -0.29595,-1.47976 -0.0566,-3.17201 0.53197,-3.76054 0.7601,-0.7601 0.74441,-2.00428 -0.0542,-4.29506 -1.40045,-4.01734 -1.4582,-9.6021 -0.10792,-10.43662 1.60605,-0.9926 0.0979,-2.48992 -2.50794,-2.48992 -1.49534,0 -2.60847,-0.74002 -3.00837,-2 -0.71892,-2.26513 -2.51331,-2.58669 -4.32496,-0.77504 -0.96234,0.96234 -1.642,0.96451 -3.17023,0.0101 -1.64321,-1.0262 -2.11064,-0.90585 -3.01023,0.77504 -0.58572,1.09444 -0.71162,2.00433 -0.27976,2.02198 0.43185,0.0177 -1.68982,1.25515 -4.71482,2.75 -4.73758,2.34114 -5.45336,3.06445 -5.16354,5.2179 0.48188,3.58051 1.46296,4.21686 4.63939,3.00918 1.54084,-0.58582 3.03912,-0.82755 3.32951,-0.53716 0.85391,0.85392 -0.0568,1.25845 -4.47605,1.98824 -3.82955,0.6324 -4.20368,0.49861 -4.57406,-1.63576 -0.35036,-2.01903 -0.50626,-2.09453 -1.1863,-0.5745 -1.28594,2.87432 0.13019,5.04067 2.94349,4.50287 1.64361,-0.3142 2.48756,-0.0234 2.48756,0.85721 0,0.733 1.4625,1.75502 3.25,2.27114 3.21677,0.92881 3.22155,0.93933 0.46788,1.02859 -3.39177,0.10995 -9.45278,2.55637 -12.08608,4.87833 -1.90909,1.68336 -1.91227,1.66658 -0.19087,-1.00871 1.68891,-2.62481 1.67675,-2.81436 -0.3452,-5.38486 -1.2027,-1.52899 -2.09573,-4.12625 -2.09573,-6.09517 0,-5.31699 -1.51931,-7.2994 -5.5942,-7.2994 -2.09458,0 -3.27316,0.4056 -2.9058,1 0.33992,0.55 -0.0835,1 -0.94098,1 -0.85746,0 -1.55902,0.675 -1.55902,1.5 0,0.825 -0.45381,1.5 -1.00847,1.5 -1.16784,0 0.44195,3.14959 3.71868,7.27573 2.23341,2.81236 4.04729,9.3001 2.91636,10.43103 -0.33742,0.33743 -2.2131,-1.03356 -4.16817,-3.04663 -4.03234,-4.15197 -5.25833,-4.42682 -8.06839,-1.80885 -1.78325,1.66134 -2.09456,3.47588 -1.51896,8.85341 0.0709,0.66258 1.81645,1.52067 3.87895,1.90687 2.0625,0.3862 4.9577,1.59418 6.43379,2.68441 2.28152,1.68513 3.7804,1.90741 10,1.48301 4.02391,-0.27458 6.64121,-0.27257 5.81621,0.005 -0.825,0.27704 -2.57801,0.90286 -3.89557,1.39072 l -2.39557,0.88701 2.27115,2.41754 c 1.24914,1.32964 3.55948,2.70049 5.1341,3.04634 3.18683,0.69992 4.90467,2.47491 2.39525,2.47491 -0.88477,0 -2.93633,0.68656 -4.55902,1.52568 -2.58754,1.33807 -2.95034,2.06563 -2.95034,5.91667 0,3.89566 -0.30858,4.49384 -2.73558,5.30284 -1.66858,0.5562 -4.47381,0.54114 -7.19205,-0.0386 -4.02045,-0.85748 -4.63335,-0.73202 -6.26442,1.28226 -2.35322,2.9061 -2.28977,5.22237 0.19205,7.01116 1.1,0.79283 2,1.99353 2,2.66822 0,0.78733 2.24679,0.1753 6.27296,-1.70877 3.45013,-1.61451 8.51263,-3.22803 11.25,-3.58561 5.81361,-0.75942 7.80101,-2.02698 7.14018,-4.55398 -0.50426,-1.92833 0.79374,-2.50767 1.83686,-0.81986 1.27214,2.05837 3.00767,0.88711 3.22334,-2.17533 0.12284,-1.74425 0.59493,-3.54295 1.0491,-3.99711 0.45416,-0.45416 0.64154,0.75211 0.4164,2.68061 -0.51609,4.42071 1.54133,7.66137 6.29666,9.91792 4.34861,2.06355 5.37451,4.14247 3.14463,6.37235 -1.52448,1.52448 -1.40777,1.76903 1.61326,3.38054 4.46149,2.37991 5.30732,2.26073 7.68852,-1.08335 z M 60.42746,27.60791 c 0.33229,-0.33229 1.19479,-0.36782 1.91667,-0.079 0.79773,0.31923 0.56078,0.55619 -0.60417,0.60417 -1.05416,0.0434 -1.64479,-0.19293 -1.3125,-0.52522 z M 50.15663,94.82673 c 3.025,-0.005 6.9625,0.36108 8.75,0.81324 5.04312,1.27569 3.96266,-0.96844 -1.1563,-2.40166 -4.80447,-1.34516 -10.92226,-0.71899 -16.00124,1.63777 l -3.09246,1.43498 3,-0.73773 c 1.65,-0.40576 5.475,-0.74172 8.5,-0.7466 z M 130.86912,73.0502 c 6.42654,-2.40058 11.99348,-6.36517 12.89303,-9.18197 0.387,-1.21186 -0.3683,-2.84288 -2.20362,-4.75854 -2.54838,-2.65995 -3.20608,-2.85982 -7.52515,-2.28687 -3.44385,0.45684 -6.685,0.0348 -11.90155,-1.54965 -4.37031,-1.32744 -8.27692,-1.93409 -10.00735,-1.55403 -1.69276,0.37179 -6.95892,4.53269 -13.0464,10.30819 -10.12949,9.61038 -10.18566,9.6896 -7.31466,10.31644 1.59126,0.34742 9.73883,0.68492 18.1057,0.75 13.32222,0.10361 15.93162,-0.15032 21,-2.04357 z m 6.21493,-20.47298 c 1.57894,-2.0073 2.07258,-4.07831 2.07258,-8.69528 0,-5.21446 -0.37509,-6.45193 -2.68709,-8.86514 -5.83808,-6.09365 -14.31291,-2.12319 -14.31291,6.70559 v 4.60122 l 2.34242,-2.72323 c 2.764,-3.21334 5.18738,-2.75522 6.71775,1.26995 1.07162,2.81859 -0.37276,8.34175 -2.18149,8.34175 -0.48327,0 -0.87868,0.45 -0.87868,1 0,0.55 1.54234,1 3.42742,1 2.51163,0 3.9812,-0.70402 5.5,-2.63486 z m -19.10258,-8.36514 c 0.63,-10.66663 -5.9241,-16.48488 -9.34551,-8.29628 -2.04875,4.90335 -1.58708,6.89024 1.4985,6.449 2.14923,-0.30734 2.27202,-0.1587 1.06773,1.29238 -1.88573,2.27217 0.15487,4.46338 2.41206,2.59007 1.2669,-1.05143 1.54238,-1.026 1.54238,0.14238 0,0.78235 -0.5625,2.00055 -1.25,2.70713 -1.01034,1.03837 -0.77069,1.22051 1.25,0.95 2.27533,-0.3046 2.52919,-0.82896 2.82484,-5.83468 z m 11.72901,1.91287 c 1.03052,-1.66742 -1.28721,-3.57951 -2.66672,-2.2 -1.15392,1.15392 -0.43172,3.28713 1.11287,3.28713 0.48508,0 1.18431,-0.48921 1.55385,-1.08713 z m 10.96659,-11.84848 c -0.3642,-1.14748 -1.95794,-2.75639 -3.54165,-3.57536 -3.39454,-1.75538 -3.97879,-1.8272 -3.97879,-0.48903 0,0.55 0.66153,1 1.47006,1 0.80854,0 2.46407,1.34447 3.67897,2.9877 2.42632,3.28178 3.39864,3.31323 2.37141,0.0767 z m -21.90803,-2.53318 c -1.4404,-2.19833 -3.61241,-3.44083 -3.61241,-2.06649 0,0.72974 4.45493,5.16788 4.88546,4.86704 0.212,-0.14814 -0.36087,-1.40839 -1.27305,-2.80055 z m 39.38759,-5.47219 c 0,-2.43001 -1.44507,-3.36992 -3.95588,-2.57302 -1.82209,0.57831 -1.83817,0.73167 -0.26881,2.56454 2.13852,2.49762 4.22469,2.50181 4.22469,0.009 z"
       id="path3079" />
    <path
       style="fill:#000000"
       d="m 131.65886,271.67872 c -1.64877,-0.88282 -3.80453,-2.33523 -4.79057,-3.22758 -1.57745,-1.42757 -2.52278,-1.47168 -7.87012,-0.3672 -5.79726,1.1974 -6.18711,1.15212 -8.45944,-0.98262 -5.15058,-4.83872 -2.21934,-8.86598 9.79444,-13.4567 7.48656,-2.86078 7.53528,-3.5981 0.32346,-4.89592 -4.32576,-0.77845 -19.5993,-7.71834 -23.23828,-10.55886 -1.23105,-0.96094 -4.26317,-2.05081 -6.73805,-2.42194 -2.47488,-0.37113 -5.06765,-1.21277 -5.76172,-1.87031 -0.69407,-0.65754 -3.96195,-2.96019 -7.26195,-5.117 -3.3,-2.15681 -7.8,-5.10977 -10,-6.56214 -2.2,-1.45237 -6.9971,-4.36782 -10.66023,-6.47878 -3.66312,-2.11096 -7.13543,-4.78075 -7.71623,-5.93285 -1.21259,-2.40532 -5.6082,-9.67559 -8.81372,-14.57774 -2.38973,-3.65457 -3.80757,-9.89056 -2.89317,-12.72483 0.31801,-0.98569 1.95837,-2.57539 3.64525,-3.53266 2.03994,-1.15763 2.96173,-2.37734 2.75257,-3.64219 -0.17296,-1.04594 0.54277,-2.85022 1.59052,-4.00951 1.51959,-1.68139 3.07553,-2.10781 7.69098,-2.10781 3.1823,0 6.06411,0.45 6.40403,1 1.1395,1.84375 3.21721,1.02745 7.6136,-2.99125 3.79189,-3.46612 4.46334,-3.76216 5.10344,-2.25 0.50931,1.20318 0.66691,0.83462 0.51002,-1.19269 -0.17989,-2.32443 -0.85028,-3.10631 -3.22706,-3.76368 -3.90522,-1.08012 -10.19139,-0.049 -10.89604,1.78729 -1.23408,3.21596 -9.33044,4.58432 -14.24728,2.40792 -5.65467,-2.503 -7.93342,-12.3144 -4.39546,-18.92512 1.68654,-3.15133 11.25641,-10.77562 15.81459,-12.59944 l 4.27504,-1.71054 -2.64741,-4.63124 c -1.45608,-2.54719 -3.70043,-5.72894 -4.98746,-7.07055 -2.09002,-2.17868 -2.5989,-2.30077 -4.76285,-1.14266 -1.62061,0.86733 -5.25373,1.17833 -10.97284,0.93931 -7.86149,-0.32857 -8.79687,-0.59388 -11.61516,-3.29444 -3.61849,-3.46734 -3.94258,-6.94025 -1.15276,-12.35275 2.70201,-5.24213 7.67983,-9.68708 14.16872,-12.652 11.193,-5.11431 19.17363,-4.37667 27.98258,2.58641 4.65293,3.67792 10.69288,6.83264 26.43633,13.80793 2.75,1.21841 7.15426,3.31564 9.78723,4.66049 l 4.78724,2.4452 5.57923,-5.7791 c 7.10435,-7.35884 9.29611,-12.03514 9.32434,-19.89423 0.017,-4.73148 -0.45589,-6.72263 -2.08991,-8.79995 l -2.11186,-2.6848 -13.7293,0.29995 c -13.89756,0.30362 -17.04697,-0.3717 -17.04697,-3.65531 0,-0.6657 4.47619,-5.63467 9.94709,-11.04216 8.18684,-8.09196 9.77949,-10.14496 9,-11.60145 -2.52629,-4.72042 1.20889,-24.56336 6.11934,-32.50863 4.30709,-6.96901 11.72122,-10.77191 23.54968,-12.07923 6.81773,-0.75352 16.67926,2.48743 21.12031,6.9411 5.46061,5.47612 8.44825,9.65169 9.31751,13.02228 0.4572,1.77283 1.7701,6.59834 2.91754,10.72334 1.14745,4.125 2.48367,10.2725 2.96939,13.66112 0.86435,6.03011 4.50491,19.38228 7.7268,28.33888 0.89031,2.475 2.49268,6.975 3.56083,10 2.33186,6.60382 7.2438,16.65158 13.4174,27.44634 2.49951,4.37048 4.71166,8.814 4.91589,9.87448 0.20423,1.06048 1.01801,2.91511 1.80839,4.12139 2.18024,3.32745 9.57285,25.78687 10.11044,30.7164 0.2604,2.38776 0.93118,7.04139 1.49063,10.34139 1.67954,9.90706 1.15913,25.31914 -1.23247,36.5 -1.07898,5.04429 -7.63424,15.48849 -13.56124,21.60652 -6.73624,6.95334 -7.82155,9.73691 -4.23967,10.87376 2.12794,0.67538 3.38172,6.54896 2.11125,9.89054 -0.73442,1.93169 -7.90762,7.62918 -9.6052,7.62918 -1.10305,0 -8.3901,8.48325 -8.41718,9.79889 -0.0342,1.66166 -7.66385,5.15042 -11.32639,5.17915 -3.16773,0.0248 -7.69119,-2.05716 -9.68251,-4.45656 -1.52214,-1.83407 -4.79242,-1.40433 -11.63561,1.529 -6.47196,2.77421 -12.36257,3.29953 -15.87999,1.41616 z m 15.84006,-4.04826 c 5.55283,-2.77325 10.82491,-3.12677 12.71243,-0.85244 2.52161,3.03835 6.93966,4.61081 11.01854,3.92168 3.13249,-0.52923 4.68971,-1.66535 7.98067,-5.82257 4.28336,-5.41084 10.90035,-11.19837 13.8871,-12.14633 2.29686,-0.729 3.86541,-4.41315 3.13056,-7.35292 -0.87856,-3.51467 -4.40912,-4.96006 -9.90352,-4.05444 -2.56744,0.42318 -12.65557,0.79624 -22.41807,0.82903 -9.7625,0.0328 -17.75,0.43357 -17.75,0.89063 0,0.45706 -1.2375,1.46487 -2.75,2.23957 -1.5125,0.7747 -4.9073,2.65074 -7.54401,4.16898 -2.6367,1.51824 -5.17922,2.76043 -5.65003,2.76043 -2.58006,0 -18.25939,7.5116 -19.14899,9.17383 -1.93074,3.60762 0.38198,4.76942 8.19097,4.11474 6.14601,-0.51526 7.21894,-0.33951 9.18118,1.50393 4.99278,4.69046 10.55883,4.87321 19.06317,0.62588 z M 87.65663,231.21208 c -0.99549,-1.1 -2.46508,-2 -3.26577,-2 -0.96763,0 -0.66417,0.6595 0.90499,1.96673 3.08634,2.57118 4.67786,2.59361 2.36078,0.0333 z m 31.43491,-2.46634 c 3.35713,-1.73604 8.1402,-9.45978 8.77494,-14.16985 0.93059,-6.90542 -7.66853,-19.72213 -16.16133,-24.08796 -3.96908,-2.04035 -14.54852,-10.16574 -14.54852,-11.17378 0,-0.42957 -1.0125,-1.25001 -2.25,-1.82319 -1.2375,-0.57318 -6.06993,-3.78227 -10.73873,-7.13132 -7.21621,-5.17636 -8.58478,-5.82951 -9.1295,-4.357 -1.51734,4.10178 -3.12294,20.78425 -2.59601,26.97314 0.68668,8.06522 4.88163,21.55188 8.38339,26.95241 2.44708,3.77395 8.2296,7.26562 12.08771,7.29895 0.95873,0.008 3.54314,0.66353 5.74314,1.4561 5.30072,1.90966 16.79493,1.94481 20.43491,0.0625 z m -38.22,-4.34152 c -3.29855,-3.74521 -7.53881,-14.18762 -9.19983,-22.65625 -1.73681,-8.85508 -1.69968,-24.21149 0.0775,-32.03589 l 0.68138,-3 -2.38696,2.12584 c -1.31283,1.16922 -3.96196,2.8338 -5.88696,3.69907 -3.02885,1.36144 -4.17307,1.39596 -8.5,0.25642 -6.34691,-1.67153 -8.85306,-0.79596 -9.5,3.31901 -0.3282,2.08757 -1.35329,3.60326 -2.98339,4.41124 -4.00912,1.98717 -4.61441,5.45718 -1.87337,10.73975 6.90386,13.30526 11.83867,19.96551 16.67352,22.50332 2.37421,1.24623 5.97421,3.39501 8,4.77506 12.24801,8.34386 19.64842,11.25593 14.89815,5.86243 z M 43.79757,154.29575 c -0.11469,-4.37409 -1.64094,-4.55204 -1.64094,-0.19132 0,2.3259 0.66734,4.10765 1.53848,4.10765 0.11283,0 0.15894,-1.76235 0.10246,-3.91633 z m 160.94508,-5.33367 c -2.06275,-6.61971 -4.21639,-12.05255 -7.43273,-18.75 -1.06649,-2.22078 -1.14324,-1.96227 -0.68721,2.31464 0.63271,5.93375 8.18663,23.68536 10.07895,23.68536 0.16507,0 -0.71648,-3.2625 -1.95901,-7.25 z M 56.4478,139.58758 c 1.16712,-1.16713 14.19615,-5.29038 16.85184,-5.33304 1.45366,-0.0233 2.86874,-0.6307 3.14463,-1.34966 1.15122,-3.00003 -18.43488,2.36983 -21.31898,5.84496 -1.15779,1.39505 0.0195,2.14078 1.32251,0.83774 z m 78.88564,-4.32442 c 0.89073,-2.40787 0.88023,-2.41268 -1.18535,-0.54335 -1.2636,1.14354 -3.44368,1.84748 -5.53775,1.78812 -1.89954,-0.0538 -3.45371,0.3425 -3.45371,0.88076 0,0.54607 2.05061,0.82952 4.63906,0.64125 3.84348,-0.27955 4.79319,-0.75404 5.53775,-2.76678 z m -1.69354,-7.84821 c 7.67431,-8.5422 10.23062,-12.48828 14.01968,-21.64167 3.42505,-8.27405 3.49705,-8.73513 3.49705,-22.39381 0,-11.81822 -0.26832,-14.27718 -1.75876,-16.11779 -2.06501,-2.55019 -4.37336,-2.02309 -6.7016,1.53025 -2.25556,3.44242 -12.60759,8.42015 -17.51112,8.42015 -2.21569,0 -4.02852,0.45 -4.02852,1 0,0.55 0.40122,1 0.89159,1 1.33688,0 2.3249,4.79229 2.31727,11.23973 -0.009,7.90886 -2.66462,12.03811 -15.86312,24.66892 -12.76512,12.21608 -14.18043,13.95745 -12.2924,15.12431 2.72455,1.68387 26.00795,4.08689 30.44666,3.14233 1.1,-0.23408 4.24247,-2.92167 6.98327,-5.97242 z m 60.87836,-2.70287 c -0.31659,-0.825 -0.75246,-1.5 -0.96862,-1.5 -0.21615,0 -0.39301,0.675 -0.39301,1.5 0,0.825 0.43588,1.5 0.96862,1.5 0.53273,0 0.70959,-0.675 0.39301,-1.5 z M 96.65663,114.8378 c -1.65,-0.7128 -4.40366,-1.57217 -6.11924,-1.90971 -1.71558,-0.33754 -5.54058,-2.03154 -8.5,-3.76444 l -5.38076,-3.15073 2.86748,3.02692 c 2.94897,3.11295 5.20397,4.21505 12.13252,5.92964 6.04426,1.49575 8.61075,1.42816 5,-0.13168 z m -46.5,-20.01107 c 3.025,-0.005 6.9625,0.36108 8.75,0.81324 5.04312,1.27569 3.96266,-0.96844 -1.1563,-2.40166 -4.80447,-1.34516 -10.92226,-0.71899 -16.00124,1.63777 l -3.09246,1.43498 3,-0.73773 c 1.65,-0.40576 5.475,-0.74172 8.5,-0.7466 z M 130.86912,73.0502 c 6.42654,-2.40058 11.99348,-6.36517 12.89303,-9.18197 0.387,-1.21186 -0.3683,-2.84288 -2.20362,-4.75854 -2.54838,-2.65995 -3.20608,-2.85982 -7.52515,-2.28687 -3.44385,0.45684 -6.685,0.0348 -11.90155,-1.54965 -4.37031,-1.32744 -8.27692,-1.93409 -10.00735,-1.55403 -1.69276,0.37179 -6.95892,4.53269 -13.0464,10.30819 -10.12949,9.61038 -10.18566,9.6896 -7.31466,10.31644 1.59126,0.34742 9.73883,0.68492 18.1057,0.75 13.32222,0.10361 15.93162,-0.15032 21,-2.04357 z m 6.21493,-20.47298 c 1.57894,-2.0073 2.07258,-4.07831 2.07258,-8.69528 0,-5.21446 -0.37509,-6.45193 -2.68709,-8.86514 -5.83808,-6.09365 -14.31291,-2.12319 -14.31291,6.70559 v 4.60122 l 2.34242,-2.72323 c 2.764,-3.21334 5.18738,-2.75522 6.71775,1.26995 1.07162,2.81859 -0.37276,8.34175 -2.18149,8.34175 -0.48327,0 -0.87868,0.45 -0.87868,1 0,0.55 1.54234,1 3.42742,1 2.51163,0 3.9812,-0.70402 5.5,-2.63486 z m -19.10258,-8.36514 c 0.63,-10.66663 -5.9241,-16.48488 -9.34551,-8.29628 -2.04875,4.90335 -1.58708,6.89024 1.4985,6.449 2.14923,-0.30734 2.27202,-0.1587 1.06773,1.29238 -1.88573,2.27217 0.15487,4.46338 2.41206,2.59007 1.2669,-1.05143 1.54238,-1.026 1.54238,0.14238 0,0.78235 -0.5625,2.00055 -1.25,2.70713 -1.01034,1.03837 -0.77069,1.22051 1.25,0.95 2.27533,-0.3046 2.52919,-0.82896 2.82484,-5.83468 z m 11.72901,1.91287 c 1.03052,-1.66742 -1.28721,-3.57951 -2.66672,-2.2 -1.15392,1.15392 -0.43172,3.28713 1.11287,3.28713 0.48508,0 1.18431,-0.48921 1.55385,-1.08713 z m 10.96659,-11.84848 c -0.3642,-1.14748 -1.95794,-2.75639 -3.54165,-3.57536 -3.39454,-1.75538 -3.97879,-1.8272 -3.97879,-0.48903 0,0.55 0.66153,1 1.47006,1 0.80854,0 2.46407,1.34447 3.67897,2.9877 2.42632,3.28178 3.39864,3.31323 2.37141,0.0767 z m -21.90803,-2.53318 c -1.4404,-2.19833 -3.61241,-3.44083 -3.61241,-2.06649 0,0.72974 4.45493,5.16788 4.88546,4.86704 0.212,-0.14814 -0.36087,-1.40839 -1.27305,-2.80055 z m 39.38759,-5.47219 c 0,-2.43001 -1.44507,-3.36992 -3.95588,-2.57302 -1.82209,0.57831 -1.83817,0.73167 -0.26881,2.56454 2.13852,2.49762 4.22469,2.50181 4.22469,0.009 z"
       id="path3077" />
  </g>
</svg>
